<svg width="440" height="440" viewBox="0 0 440 440" fill="none" xmlns="http://www.w3.org/2000/svg">
<circle cx="220" cy="220" r="218.5" stroke="url(#paint0_linear_291_101)" stroke-width="3"/>
<circle cx="220" cy="220" r="193" stroke="black" stroke-width="3" stroke-dasharray="1 10"/>
<path d="M302.864 44.347C307.115 46.5933 309.585 48.6868 309.685 50.3822L308.187 50.47C308.189 50.4983 308.186 50.5174 308.183 50.5312C308.18 50.5451 308.175 50.5634 308.161 50.5885L309.487 51.2907C308.692 52.7914 305.575 53.6688 300.775 53.9449L300.688 52.4474C300.392 52.4644 300.088 52.4792 299.777 52.4916L299.837 53.9904C297.147 54.0975 293.984 54.0318 290.446 53.7967L290.546 52.3C290.242 52.2799 289.935 52.2584 289.626 52.2357L289.516 53.7317C286.621 53.5191 283.489 53.1973 280.173 52.7681L280.365 51.2805C280.06 51.2409 279.752 51.2005 279.444 51.1591L279.245 52.6458C276.281 52.2485 273.176 51.7673 269.966 51.2033L270.225 49.7259C269.918 49.6721 269.611 49.6174 269.302 49.562L269.037 51.0384C266.046 50.5015 262.967 49.8938 259.829 49.2162L260.145 47.75C259.992 47.717 259.839 47.6839 259.686 47.6506C259.533 47.6173 259.381 47.5839 259.228 47.5504L258.906 49.0155C255.77 48.3273 252.717 47.6003 249.773 46.8453L250.146 45.3923C249.842 45.3144 249.54 45.2363 249.239 45.1578L248.861 46.6094C245.706 45.7879 242.682 44.9351 239.822 44.0647L240.258 42.6296C239.96 42.539 239.664 42.4481 239.37 42.3571L238.927 43.7901C235.732 42.802 232.75 41.7931 230.028 40.7831L230.55 39.3768C230.259 39.2688 229.971 39.1609 229.687 39.053L229.155 40.4556C225.84 39.199 222.936 37.944 220.534 36.7286L221.211 35.3902C220.933 35.2497 220.663 35.11 220.4 34.9711L219.7 36.2974C215.448 34.051 212.978 31.9575 212.879 30.2621L214.376 30.1744C214.374 30.146 214.377 30.127 214.38 30.1131C214.383 30.0992 214.389 30.081 214.402 30.0559L213.076 29.3536C213.872 27.8529 216.988 26.9755 221.789 26.6994L221.875 28.197C222.171 28.1799 222.475 28.1652 222.786 28.1528L222.727 26.654C225.416 26.5469 228.58 26.6126 232.117 26.8476L232.018 28.3443C232.321 28.3645 232.628 28.3859 232.938 28.4087L233.047 26.9127C235.942 27.1252 239.074 27.447 242.391 27.8763L242.198 29.3639C242.504 29.4034 242.811 29.4439 243.119 29.4852L243.319 27.9985C246.282 28.3958 249.387 28.8771 252.598 29.4411L252.338 30.9184C252.645 30.9723 252.952 31.0269 253.261 31.0823L253.526 29.6059C256.517 30.1428 259.596 30.7505 262.735 31.4281L262.418 32.8944C262.571 32.9273 262.724 32.9605 262.877 32.9938C263.03 33.0271 263.183 33.0605 263.335 33.094L263.657 31.6288C266.793 32.3171 269.846 33.0441 272.79 33.7991L272.417 35.252C272.721 35.3299 273.023 35.4081 273.325 35.4865L273.703 34.035C276.857 34.8565 279.881 35.7092 282.742 36.5797L282.305 38.0147C282.603 38.1054 282.899 38.1962 283.193 38.2873L283.637 36.8542C286.832 37.8424 289.813 38.8513 292.535 39.8613L292.013 41.2676C292.304 41.3755 292.592 41.4835 292.877 41.5914L293.408 40.1888C296.723 41.4454 299.628 42.7003 302.03 43.9158L301.352 45.2542C301.63 45.3947 301.9 45.5344 302.163 45.6732L302.864 44.347Z" stroke="black" stroke-width="3" stroke-dasharray="1 10"/>
<path d="M336.265 61.9343C340.523 64.7957 342.827 67.4341 342.734 69.665L341.235 69.6023C341.231 69.6921 341.22 69.7784 341.202 69.8624C341.184 69.9465 341.158 70.0297 341.124 70.1128L342.513 70.6788C341.671 72.7466 338.478 74.1886 333.416 75.0212L333.173 73.5411C332.846 73.5949 332.51 73.6462 332.165 73.6949L332.375 75.1802C329.438 75.5955 325.94 75.8249 321.961 75.871L321.943 74.3711C321.597 74.3751 321.248 74.3777 320.894 74.3789L320.9 75.8789C317.703 75.8899 314.213 75.7876 310.469 75.5733L310.555 74.0758C310.21 74.056 309.863 74.0354 309.514 74.0137L309.421 75.5108C306.129 75.3067 302.648 75.0183 299.005 74.6464L299.157 73.1542C298.812 73.119 298.466 73.083 298.118 73.0463L297.96 74.538C294.629 74.1864 291.165 73.7662 287.589 73.2782L287.792 71.7919C287.448 71.745 287.103 71.6975 286.758 71.6493L286.551 73.135C283.2 72.6682 279.753 72.1425 276.225 71.5585L276.47 70.0786C276.127 70.0218 275.783 69.9644 275.438 69.9064L275.189 71.3856C271.828 70.8208 268.397 70.2036 264.907 69.5344L265.19 68.0613C264.85 67.9961 264.509 67.9303 264.168 67.8641L263.882 69.3366C260.516 68.6834 257.098 67.9821 253.64 67.2332L253.957 65.7672L253.446 65.6561L252.934 65.5444L252.613 67.0097C249.157 66.2535 245.756 65.4706 242.423 64.6657L242.776 63.2077C242.438 63.1261 242.101 63.0443 241.764 62.9622L241.409 64.4195C237.957 63.5779 234.579 62.7129 231.288 61.8297L231.677 60.381C231.339 60.2903 231.002 60.1994 230.666 60.1084L230.273 61.5562C226.823 60.6212 223.469 59.6666 220.227 58.6984L220.656 57.2611C220.322 57.1612 219.989 57.0612 219.656 56.961L219.223 58.3971C215.768 57.3546 212.443 56.2971 209.266 55.2321L209.743 53.8099C209.412 53.6987 209.082 53.5875 208.753 53.4761L208.272 54.8967C204.803 53.7205 201.518 52.5361 198.438 51.3534L198.976 49.9531C198.65 49.8277 198.326 49.7023 198.004 49.5769L197.459 50.9746C193.965 49.6134 190.748 48.2558 187.845 46.9171L188.473 45.555C188.152 45.407 187.836 45.2593 187.523 45.1119L186.883 46.4689C183.283 44.7729 180.197 43.1102 177.699 41.5119L178.507 40.2483C178.214 40.0607 177.929 39.8744 177.654 39.6895L176.818 40.9345C172.559 38.0731 170.255 35.4347 170.348 33.2038L171.847 33.2665C171.851 33.1768 171.862 33.0904 171.88 33.0064C171.899 32.9223 171.924 32.8391 171.958 32.756L170.569 32.19C171.412 30.1222 174.604 28.6803 179.666 27.8476L179.91 29.3277C180.237 29.2739 180.573 29.2226 180.917 29.1739L180.707 27.6887C183.644 27.2733 187.142 27.0439 191.122 26.9978L191.139 28.4977C191.485 28.4937 191.835 28.4911 192.188 28.4899L192.183 26.9899C195.38 26.9789 198.87 27.0812 202.613 27.2955L202.528 28.793C202.873 28.8128 203.22 28.8335 203.569 28.8551L203.662 27.358C206.954 27.5621 210.434 27.8505 214.078 28.2224L213.926 29.7146C214.27 29.7498 214.617 29.7858 214.965 29.8225L215.122 28.3308C218.454 28.6824 221.917 29.1026 225.494 29.5906L225.291 31.0769C225.634 31.1238 225.979 31.1713 226.325 31.2195L226.532 29.7338C229.883 30.2006 233.33 30.7263 236.857 31.3103L236.612 32.7902C236.956 32.847 237.3 32.9045 237.645 32.9624L237.893 31.4832C241.254 32.048 244.686 32.6652 248.175 33.3344L247.893 34.8075C248.233 34.8728 248.573 34.9385 248.914 35.0047L249.2 33.5322C252.566 34.1854 255.984 34.8867 259.442 35.6356L259.125 37.1016L259.637 37.2128L260.149 37.3244L260.469 35.8591C263.926 36.6153 267.326 37.3982 270.659 38.2031L270.307 39.6611C270.645 39.7427 270.982 39.8246 271.318 39.9066L271.674 38.4493C275.125 39.2909 278.503 40.1559 281.794 41.0391L281.406 42.4878C281.744 42.5785 282.081 42.6694 282.417 42.7604L282.809 41.3126C286.26 42.2476 289.614 43.2022 292.855 44.1704L292.426 45.6077C292.761 45.7076 293.094 45.8076 293.426 45.9078L293.859 44.4717C297.315 45.5142 300.639 46.5717 303.816 47.6367L303.339 49.0589C303.671 49.1701 304.001 49.2813 304.329 49.3927L304.811 47.9721C308.279 49.1483 311.565 50.3327 314.644 51.5154L314.106 52.9157C314.433 53.0411 314.757 53.1665 315.079 53.2919L315.623 51.8942C319.117 53.2554 322.334 54.613 325.237 55.9517L324.609 57.3138C324.93 57.4618 325.247 57.6095 325.56 57.7569L326.199 56.3999C329.799 58.0959 332.886 59.7586 335.384 61.3569L334.575 62.6205C334.869 62.8081 335.153 62.9944 335.428 63.1794L336.265 61.9343Z" stroke="black" stroke-width="3" stroke-dasharray="1 10"/>
<path d="M362.39 90.2074C366.16 93.2459 368.099 96.0505 367.883 98.4868L366.389 98.3546C366.38 98.4629 366.363 98.5693 366.341 98.6742C366.318 98.7791 366.288 98.8827 366.252 98.9852L367.666 99.486C366.849 101.791 363.92 103.537 359.229 104.733L358.858 103.28C358.553 103.357 358.239 103.433 357.917 103.506L358.25 104.969C355.407 105.616 351.985 106.081 348.052 106.367L347.944 104.871C347.614 104.895 347.28 104.917 346.943 104.939L347.038 106.436C343.906 106.634 340.466 106.723 336.751 106.705L336.759 105.205C336.42 105.203 336.079 105.2 335.736 105.197L335.721 106.697C332.485 106.664 329.048 106.551 325.429 106.359L325.508 104.861C325.172 104.843 324.834 104.825 324.495 104.806L324.41 106.303C321.128 106.118 317.702 105.868 314.145 105.556L314.277 104.061C313.934 104.031 313.591 104.001 313.246 103.969L313.111 105.463C309.803 105.163 306.386 104.809 302.871 104.402L303.044 102.912C302.708 102.873 302.371 102.834 302.033 102.794L301.857 104.283C298.537 103.891 295.132 103.451 291.65 102.965L291.857 101.48C291.522 101.433 291.185 101.385 290.848 101.338L290.637 102.823C287.31 102.351 283.915 101.837 280.459 101.281L280.698 99.8005C280.362 99.7465 280.026 99.6921 279.689 99.6373L279.448 101.118C276.118 100.576 272.733 99.9952 269.301 99.3759L269.567 97.8997C269.233 97.8393 268.898 97.7785 268.562 97.7174L268.293 99.1931C264.963 98.5865 261.589 97.9437 258.178 97.2651L258.471 95.7939C258.137 95.7275 257.803 95.6608 257.469 95.5938L257.174 97.0645C253.847 96.3972 250.487 95.696 247.098 94.961L247.415 93.4951L246.911 93.3855L246.407 93.2755L246.086 94.741C242.698 94.0008 239.35 93.2416 236.048 92.466L236.39 91.0057C236.059 90.9277 235.727 90.8496 235.396 90.7713L235.051 92.2311C231.667 91.4306 228.331 90.6128 225.05 89.7803L225.418 88.3264C225.088 88.2425 224.758 88.1585 224.428 88.0743L224.057 89.5276C220.678 88.6643 217.358 87.7857 214.104 86.8944L214.5 85.4476C214.171 85.3575 213.843 85.2673 213.515 85.1769L213.116 86.6229C209.742 85.6923 206.44 84.7484 203.218 83.7942L203.644 82.3559C203.317 82.2592 202.992 82.1624 202.667 82.0655L202.238 83.5029C198.869 82.4981 195.589 81.4824 192.407 80.4594L192.866 79.0313C192.542 78.9272 192.219 78.8231 191.897 78.7188L191.435 80.1458C188.068 79.0552 184.813 77.9567 181.68 76.8549L182.178 75.4399C181.852 75.325 181.527 75.2102 181.203 75.0953L180.701 76.509C177.336 75.315 174.116 74.1177 171.054 72.9225L171.6 71.5252C171.283 71.4015 170.968 71.2779 170.655 71.1543L170.104 72.5497C166.733 71.2202 163.56 69.8941 160.603 68.5792L161.213 67.2086C160.899 67.0691 160.588 66.9298 160.279 66.7907L159.663 68.1581C156.276 66.6309 153.185 65.12 150.419 63.6376L151.127 62.3154C150.829 62.1558 150.535 61.9966 150.245 61.8379L149.525 63.1535C146.066 61.2592 143.147 59.4139 140.83 57.6434L141.741 56.4516C141.479 56.251 141.225 56.0519 140.98 55.8544L140.039 57.0223C136.269 53.9837 134.33 51.1791 134.545 48.7429L136.04 48.8751C136.049 48.7667 136.065 48.6603 136.088 48.5554C136.111 48.4505 136.141 48.347 136.177 48.2445L134.763 47.7437C135.58 45.4382 138.508 43.6931 143.2 42.4965L143.571 43.9499C143.876 43.8722 144.19 43.7966 144.512 43.7232L144.179 42.2607C147.022 41.6133 150.444 41.1482 154.377 40.8629L154.485 42.359C154.815 42.3351 155.149 42.3124 155.486 42.2911L155.391 40.7941C158.523 40.5956 161.963 40.5063 165.678 40.5249L165.67 42.0249C166.009 42.0266 166.35 42.0292 166.693 42.0327L166.708 40.5328C169.944 40.5659 173.381 40.6787 177 40.8705L176.92 42.3684C177.257 42.3862 177.595 42.4048 177.934 42.424L178.019 40.9264C181.301 41.112 184.727 41.3614 188.284 41.674L188.152 43.1683C188.495 43.1984 188.838 43.229 189.183 43.2603L189.318 41.7664C192.626 42.0664 196.043 42.4203 199.558 42.8277L199.385 44.3177C199.721 44.3567 200.058 44.3961 200.396 44.436L200.572 42.9464C203.892 43.3387 207.297 43.7782 210.779 44.2645L210.572 45.7501C210.907 45.797 211.244 45.8443 211.581 45.8921L211.791 44.407C215.119 44.8784 218.514 45.3922 221.97 45.9482L221.731 47.4292C222.067 47.4832 222.403 47.5376 222.74 47.5923L222.981 46.1118C226.311 46.6537 229.696 47.2344 233.128 47.8538L232.861 49.3299C233.196 49.3903 233.531 49.4511 233.867 49.5122L234.136 48.0365C237.466 48.6432 240.84 49.2859 244.251 49.9646L243.958 51.4357C244.292 51.5021 244.626 51.5688 244.96 51.6359L245.255 50.1652C248.581 50.8324 251.942 51.5336 255.331 52.2686L255.014 53.7345L255.518 53.8441L256.022 53.9541L256.342 52.4887C259.731 53.2289 263.079 53.988 266.381 54.7637L266.038 56.224C266.37 56.3019 266.702 56.38 267.033 56.4583L267.378 54.9986C270.762 55.7991 274.098 56.6168 277.379 57.4493L277.011 58.9032C277.341 58.9871 277.671 59.0712 278.001 59.1554L278.372 57.7021C281.751 58.5653 285.071 59.444 288.325 60.3353L287.929 61.782C288.258 61.8721 288.586 61.9624 288.914 62.0528L289.313 60.6068C292.687 61.5373 295.989 62.4813 299.211 63.4355L298.785 64.8737C299.112 64.9704 299.437 65.0672 299.762 65.1641L300.191 63.7267C303.56 64.7315 306.84 65.7473 310.022 66.7703L309.563 68.1983C309.887 68.3024 310.21 68.4066 310.532 68.5108L310.994 67.0838C314.361 68.1745 317.616 69.2729 320.748 70.3747L320.251 71.7898C320.577 71.9046 320.902 72.0195 321.226 72.1343L321.728 70.7207C325.093 71.9146 328.313 73.112 331.375 74.3072L330.829 75.7045C331.146 75.8281 331.461 75.9517 331.774 76.0753L332.325 74.6799C335.695 76.0094 338.869 77.3355 341.826 78.6504L341.216 80.021C341.53 80.1605 341.841 80.2998 342.149 80.439L342.766 79.0716C346.153 80.5987 349.244 82.1096 352.01 83.5921L351.302 84.9142C351.6 85.0738 351.894 85.233 352.184 85.3918L352.904 84.0762C356.363 85.9705 359.282 87.8157 361.598 89.5862L360.688 90.778C360.95 90.9787 361.204 91.1778 361.449 91.3753L362.39 90.2074Z" stroke="black" stroke-width="3" stroke-dasharray="1 10"/>
<path d="M388.353 120.268C391.647 123.368 393.267 126.24 392.973 128.783L391.483 128.611C391.47 128.727 391.451 128.842 391.426 128.956C391.401 129.07 391.371 129.183 391.335 129.294L392.761 129.757C391.972 132.192 389.304 134.131 385.02 135.581L384.539 134.16C384.247 134.259 383.946 134.356 383.636 134.45L384.074 135.885C381.362 136.714 378.072 137.368 374.262 137.847L374.075 136.359C373.747 136.4 373.415 136.44 373.079 136.478L373.251 137.969C370.224 138.317 366.888 138.56 363.268 138.7L363.21 137.201C362.881 137.214 362.549 137.225 362.215 137.236L362.264 138.736C359.119 138.839 355.768 138.866 352.227 138.818L352.248 137.318C351.914 137.313 351.579 137.308 351.241 137.302L351.215 138.802C348.02 138.746 344.675 138.629 341.192 138.453L341.268 136.955C340.942 136.939 340.615 136.922 340.287 136.904L340.207 138.402C336.98 138.23 333.637 138.007 330.188 137.734L330.306 136.238C329.98 136.213 329.653 136.186 329.324 136.16L329.202 137.655C325.964 137.391 322.633 137.083 319.217 136.732L319.37 135.24C319.037 135.205 318.703 135.171 318.367 135.136L318.211 136.627C314.97 136.288 311.653 135.909 308.269 135.492L308.452 134.003C308.12 133.962 307.788 133.921 307.455 133.879L307.269 135.368C304.017 134.962 300.703 134.52 297.333 134.043L297.543 132.558C297.215 132.511 296.886 132.464 296.556 132.417L296.344 133.902C293.085 133.436 289.775 132.937 286.417 132.406L286.652 130.925C286.563 130.911 286.474 130.897 286.386 130.883C286.365 130.879 286.345 130.876 286.324 130.873C286.104 130.838 285.883 130.803 285.662 130.767L285.425 132.249C282.175 131.73 278.882 131.181 275.549 130.602L275.806 129.124C275.478 129.067 275.149 129.009 274.82 128.952L274.561 130.429C271.304 129.859 268.01 129.259 264.683 128.632L264.961 127.158C264.636 127.096 264.31 127.035 263.984 126.973L263.704 128.446C260.457 127.829 257.179 127.185 253.874 126.515L254.173 125.045C253.846 124.978 253.519 124.912 253.191 124.845L252.891 126.314C249.642 125.651 246.368 124.961 243.072 124.246L243.391 122.78L242.899 122.673L242.407 122.566L242.087 124.032C238.792 123.312 235.528 122.579 232.297 121.832L232.635 120.37C232.309 120.295 231.984 120.22 231.659 120.144L231.32 121.605C228.035 120.842 224.786 120.065 221.576 119.276L221.934 117.82C221.612 117.741 221.29 117.661 220.968 117.582L220.609 119.038C217.322 118.226 214.077 117.402 210.878 116.567L211.256 115.116C210.933 115.031 210.61 114.947 210.288 114.862L209.907 116.313C206.635 115.455 203.411 114.585 200.24 113.706L200.64 112.261C200.318 112.172 199.996 112.082 199.675 111.993L199.272 113.437C195.998 112.525 192.779 111.603 189.622 110.672L190.046 109.233C189.727 109.139 189.408 109.045 189.09 108.951L188.664 110.389C185.4 109.422 182.203 108.446 179.076 107.464L179.526 106.033C179.205 105.933 178.886 105.832 178.567 105.731L178.115 107.162C174.863 106.134 171.69 105.1 168.6 104.062L169.078 102.64C168.759 102.533 168.44 102.425 168.123 102.318L167.642 103.739C164.39 102.638 161.232 101.534 158.176 100.428L158.687 99.0171C158.377 98.905 158.069 98.7929 157.761 98.6807L157.247 100.09C153.997 98.9047 150.864 97.718 147.857 96.5335L148.407 95.1379C148.101 95.0173 147.796 94.8968 147.493 94.7764L146.939 96.1704C143.698 94.883 140.608 93.5984 137.679 92.3215L138.278 90.9465C137.969 90.8117 137.662 90.6771 137.356 90.5425L136.752 91.9152C133.511 90.4875 130.474 89.0699 127.657 87.6688L128.324 86.3257C128.025 86.1768 127.728 86.0282 127.434 85.8797L126.758 87.219C123.524 85.5874 120.591 83.9792 117.983 82.4046L118.758 81.1205C118.469 80.9458 118.184 80.7715 117.903 80.5978L117.114 81.8736C113.848 79.8543 111.127 77.8927 109.005 76.0107L110 74.8883C109.757 74.6734 109.524 74.4602 109.299 74.2488L108.271 75.3412C104.977 72.2417 103.356 69.3699 103.65 66.8265L105.141 66.9987C105.154 66.8823 105.173 66.7672 105.198 66.6532C105.223 66.5393 105.253 66.4266 105.289 66.3151L103.862 65.8524C104.652 63.417 107.32 61.4787 111.604 60.0286L112.085 61.4494C112.377 61.3505 112.678 61.2537 112.988 61.159L112.549 59.7245C115.262 58.8951 118.552 58.2418 122.362 57.7626L122.549 59.2509C122.877 59.2096 123.209 59.1697 123.545 59.131L123.373 57.6409C126.399 57.2927 129.736 57.0492 133.356 56.9096L133.414 58.4085C133.743 58.3958 134.075 58.384 134.409 58.373L134.36 56.8738C137.505 56.7706 140.856 56.7434 144.397 56.7918L144.376 58.2917C144.71 58.2962 145.045 58.3015 145.382 58.3074L145.409 56.8076C148.604 56.8637 151.948 56.9799 155.431 57.1561L155.356 58.6542C155.682 58.6706 156.009 58.6876 156.337 58.7052L156.417 57.2073C159.644 57.3796 162.987 57.6025 166.436 57.8757L166.318 59.371C166.644 59.3968 166.971 59.4231 167.3 59.4499L167.421 57.9548C170.66 58.2187 173.991 58.5264 177.407 58.8776L177.254 60.3697C177.587 60.404 177.921 60.4387 178.256 60.4739L178.413 58.982C181.654 59.3218 184.97 59.7003 188.355 60.1174L188.172 61.6061C188.503 61.647 188.836 61.6883 189.169 61.73L189.355 60.2415C192.607 60.6479 195.92 61.0896 199.291 61.5664L199.081 63.0516C199.409 63.0981 199.738 63.1449 200.068 63.1921L200.28 61.7072C203.539 62.1733 206.849 62.672 210.207 63.2031L209.972 64.6847C210.302 64.7368 210.632 64.7892 210.962 64.842L211.198 63.3607C214.449 63.8796 217.742 64.4287 221.075 65.0079L220.818 66.4857C221.146 66.5428 221.475 66.6002 221.804 66.6578L222.063 65.1803C225.32 65.7509 228.614 66.3501 231.941 66.9777L231.663 68.4517C231.988 68.513 232.314 68.5747 232.639 68.6366L232.919 67.163C236.167 67.78 239.445 68.424 242.75 69.0948L242.451 70.5648C242.778 70.6311 243.105 70.6977 243.433 70.7646L243.733 69.295C246.982 69.9587 250.256 70.6482 253.551 71.3635L253.233 72.8293L253.725 72.9362L254.217 73.0434L254.537 71.5779C257.831 72.2972 261.096 73.0309 264.327 73.7776L263.989 75.2391C264.314 75.3143 264.64 75.3897 264.964 75.4652L265.304 74.0041C268.588 74.7676 271.838 75.5444 275.048 76.3331L274.69 77.7897C275.012 77.8689 275.334 77.9482 275.655 78.0276L276.015 76.5713C279.301 77.3831 282.546 78.2073 285.746 79.0422L285.368 80.4936C285.691 80.578 286.014 80.6625 286.336 80.7471L286.717 79.2962C289.989 80.1546 293.212 81.0241 296.384 81.903L295.984 83.3486C296.306 83.4379 296.628 83.5273 296.949 83.6169L297.352 82.1719C300.626 83.0844 303.844 84.0068 307.002 84.9372L306.578 86.376C306.897 86.4701 307.216 86.5643 307.534 86.6586L307.96 85.2205C311.224 86.1876 314.421 87.1632 317.548 88.1451L317.098 89.5761C317.419 89.6768 317.738 89.7774 318.057 89.8782L318.509 88.4479C321.761 89.4753 324.934 90.5094 328.024 91.5477L327.546 92.9695C327.865 93.0769 328.184 93.1842 328.501 93.2917L328.982 91.8708C332.234 92.971 335.392 94.0757 338.447 95.1819L337.937 96.5923C338.247 96.7044 338.555 96.8166 338.863 96.9287L339.377 95.5194C342.627 96.7047 345.76 97.8914 348.767 99.076L348.217 100.472C348.523 100.592 348.828 100.713 349.131 100.833L349.685 99.439C352.926 100.726 356.016 102.011 358.945 103.288L358.346 104.663C358.655 104.798 358.962 104.932 359.268 105.067L359.872 103.694C363.113 105.122 366.15 106.54 368.967 107.941L368.299 109.284C368.599 109.433 368.896 109.581 369.19 109.73L369.865 108.39C373.1 110.022 376.033 111.63 378.641 113.205L377.866 114.489C378.155 114.664 378.44 114.838 378.721 115.012L379.51 113.736C382.776 115.755 385.497 117.717 387.619 119.599L386.624 120.721C386.867 120.936 387.1 121.149 387.325 121.361L388.353 120.268Z" stroke="black" stroke-width="3" stroke-dasharray="1 10"/>
<path d="M400.951 152.253C403.995 155.399 405.452 158.323 405.117 160.938L403.629 160.748C403.613 160.869 403.593 160.989 403.567 161.108C403.541 161.227 403.51 161.345 403.473 161.462L404.906 161.907C404.123 164.426 401.583 166.479 397.507 168.075L396.96 166.679C396.673 166.791 396.377 166.901 396.072 167.01L396.574 168.423C393.91 169.369 390.664 170.14 386.888 170.738L386.653 169.257C386.327 169.308 385.997 169.359 385.662 169.408L385.88 170.892C382.891 171.33 379.589 171.665 375.998 171.898L375.901 170.401C375.575 170.422 375.245 170.443 374.914 170.462L375.002 171.96C371.885 172.142 368.559 172.25 365.038 172.284L365.024 170.784C364.69 170.787 364.355 170.789 364.018 170.791L364.026 172.291C360.859 172.309 357.538 172.267 354.074 172.166L354.118 170.667C353.784 170.657 353.449 170.647 353.113 170.636L353.065 172.136C349.868 172.033 346.552 171.882 343.126 171.682L343.213 170.184C342.882 170.165 342.55 170.145 342.217 170.125L342.126 171.622C338.905 171.426 335.588 171.188 332.182 170.907L332.305 169.412C332.189 169.403 332.072 169.393 331.956 169.383C331.939 169.382 331.923 169.38 331.906 169.379C331.711 169.363 331.516 169.346 331.321 169.33L331.195 170.825C327.959 170.551 324.645 170.24 321.257 169.892L321.411 168.399C321.079 168.365 320.746 168.331 320.412 168.296L320.256 169.788C317.026 169.449 313.731 169.077 310.375 168.672L310.555 167.182L310.379 167.161C310.109 167.128 309.839 167.096 309.569 167.062L309.386 168.551C306.141 168.154 302.841 167.725 299.488 167.265L299.692 165.779C299.362 165.734 299.032 165.688 298.701 165.642L298.495 167.128C295.259 166.68 291.975 166.202 288.649 165.696L288.874 164.213C288.548 164.163 288.221 164.113 287.893 164.063L287.666 165.546C284.424 165.048 281.141 164.524 277.821 163.972L278.067 162.492C277.738 162.438 277.409 162.383 277.08 162.328L276.832 163.807C273.591 163.264 270.315 162.696 267.007 162.102L267.272 160.626C266.948 160.567 266.623 160.509 266.299 160.45L266.032 161.926C262.797 161.342 259.532 160.733 256.24 160.1L256.523 158.627C256.198 158.564 255.873 158.501 255.547 158.438L255.262 159.911C252.028 159.285 248.768 158.636 245.486 157.964L245.787 156.494C245.461 156.427 245.135 156.36 244.809 156.293L244.506 157.762C241.275 157.097 238.022 156.409 234.75 155.698L235.068 154.232L234.579 154.126L234.09 154.02L233.77 155.485C230.499 154.771 227.254 154.045 224.039 153.307L224.374 151.845C224.049 151.771 223.725 151.696 223.401 151.621L223.064 153.083C219.799 152.33 216.565 151.566 213.363 150.791L213.716 149.333C213.393 149.255 213.071 149.177 212.75 149.098L212.395 150.556C209.138 149.764 205.915 148.96 202.73 148.147L203.101 146.694C202.98 146.663 202.86 146.633 202.74 146.602C202.541 146.551 202.342 146.5 202.143 146.449L201.77 147.902C198.515 147.067 195.299 146.222 192.125 145.369L192.514 143.92C192.192 143.834 191.87 143.747 191.549 143.66L191.157 145.108C187.908 144.23 184.704 143.343 181.549 142.447L181.958 141.004C181.639 140.914 181.321 140.823 181.004 140.733L180.592 142.176C177.356 141.253 174.171 140.323 171.042 139.386L171.472 137.949C171.152 137.853 170.832 137.757 170.514 137.661L170.081 139.097C166.841 138.122 163.661 137.14 160.544 136.153L160.997 134.723C160.681 134.623 160.365 134.522 160.05 134.422L159.595 135.851C156.374 134.826 153.222 133.794 150.144 132.759L150.622 131.338C150.304 131.231 149.987 131.124 149.671 131.017L149.19 132.438C145.964 131.347 142.82 130.252 139.764 129.156L140.27 127.744C139.96 127.633 139.65 127.521 139.341 127.41L138.832 128.821C135.617 127.661 132.501 126.499 129.49 125.338L130.029 123.938C129.718 123.818 129.408 123.698 129.099 123.578L128.556 124.977C125.357 123.735 122.278 122.494 119.327 121.258L119.907 119.875C119.596 119.745 119.288 119.615 118.98 119.485L118.396 120.867C115.205 119.518 112.167 118.176 109.293 116.844L109.924 115.483C109.618 115.341 109.314 115.2 109.012 115.058L108.376 116.416C105.188 114.922 102.207 113.442 99.4488 111.98L100.151 110.655C99.8574 110.499 99.5664 110.344 99.278 110.189L98.5677 111.51C95.3983 109.806 92.5343 108.129 89.9983 106.488L90.8132 105.228C90.5293 105.045 90.2497 104.862 89.9745 104.679L89.1454 105.929C85.9596 103.816 83.3275 101.765 81.2978 99.7971L82.342 98.7202C82.1096 98.495 81.8863 98.2716 81.6721 98.0501L80.5941 99.0932C77.5501 95.9471 76.0931 93.0235 76.4282 90.4077L77.916 90.5983C77.9315 90.4771 77.9523 90.3569 77.9782 90.2378C78.0041 90.1187 78.0352 90.0008 78.0715 89.8841L76.639 89.4391C77.4215 86.9206 79.9619 84.8671 84.0381 83.2709L84.585 84.6676C84.8719 84.5553 85.1679 84.4449 85.4728 84.3366L84.9708 82.9231C87.6347 81.9769 90.8811 81.2057 94.657 80.6078L94.8916 82.0894C95.2178 82.0377 95.5481 81.9874 95.8827 81.9383L95.665 80.4542C98.6536 80.0158 101.956 79.6807 105.547 79.4482L105.643 80.945C105.97 80.9239 106.299 80.9036 106.631 80.8841L106.543 79.3867C109.66 79.2039 112.986 79.096 116.507 79.0624L116.521 80.5624C116.854 80.5592 117.19 80.5567 117.527 80.5549L117.519 79.0549C120.686 79.0377 124.007 79.0794 127.47 79.1797L127.427 80.6791C127.761 80.6887 128.095 80.6989 128.432 80.7097L128.48 79.2104C131.677 79.3127 134.993 79.4641 138.419 79.6642L138.332 81.1617C138.663 81.181 138.995 81.2008 139.328 81.2211L139.419 79.7238C142.64 79.9197 145.957 80.1583 149.363 80.4392L149.24 81.9341C149.567 81.9611 149.895 81.9885 150.224 82.0162L150.35 80.5216C153.586 80.7948 156.9 81.1059 160.288 81.4546L160.134 82.9467C160.466 82.9809 160.799 83.0155 161.133 83.0504L161.289 81.5586C164.519 81.8967 167.814 82.2687 171.17 82.6745L170.99 84.1637C171.318 84.2034 171.647 84.2434 171.976 84.2838L172.158 82.7949C175.404 83.1923 178.704 83.621 182.057 84.081L181.853 85.567C182.183 85.6123 182.513 85.6579 182.844 85.7038L183.05 84.218C186.286 84.6665 189.569 85.144 192.896 85.6501L192.671 87.1331C192.997 87.1828 193.324 87.2327 193.651 87.283L193.879 85.8003C197.121 86.2979 200.404 86.8226 203.724 87.3744L203.478 88.8541C203.807 88.9087 204.136 88.9635 204.465 89.0186L204.713 87.5392C207.954 88.0819 211.23 88.6503 214.538 89.2442L214.273 90.7206C214.597 90.7788 214.921 90.8372 215.246 90.8958L215.513 89.4198C218.748 90.0044 222.013 90.6134 225.305 91.2466L225.021 92.7196C225.347 92.7821 225.672 92.8449 225.997 92.9079L226.282 91.4352C229.517 92.0611 232.777 92.7103 236.059 93.3827L235.758 94.8521C236.084 94.9189 236.41 94.9858 236.736 95.053L237.038 93.5838C240.27 94.2494 243.523 94.9375 246.795 95.6478L246.477 97.1137L246.966 97.22L247.455 97.3265L247.774 95.861C251.046 96.5749 254.29 97.3012 257.506 98.0391L257.171 99.5011C257.495 99.5755 257.82 99.6501 258.144 99.7248L258.481 98.2631C261.746 99.0159 264.98 99.7804 268.182 100.556L267.829 102.013C268.152 102.091 268.474 102.17 268.795 102.248L269.15 100.79C272.407 101.583 275.63 102.386 278.815 103.199L278.444 104.652C278.764 104.734 279.083 104.815 279.402 104.897L279.775 103.444C283.03 104.279 286.246 105.124 289.42 105.977L289.03 107.426C289.353 107.513 289.675 107.599 289.996 107.686L290.387 106.238C293.636 107.116 296.84 108.004 299.996 108.899L299.587 110.342C299.906 110.432 300.224 110.523 300.541 110.613L300.953 109.171C304.189 110.093 307.373 111.023 310.503 111.961L310.073 113.398C310.393 113.493 310.712 113.589 311.031 113.685L311.464 112.249C314.704 113.224 317.884 114.206 321.001 115.193L320.548 116.623C320.864 116.723 321.18 116.824 321.495 116.924L321.95 115.495C325.171 116.521 328.323 117.552 331.401 118.587L330.923 120.008C331.241 120.115 331.558 120.222 331.874 120.329L332.355 118.908C335.581 119.999 338.724 121.094 341.781 122.19L341.274 123.602C341.585 123.713 341.895 123.825 342.204 123.936L342.713 122.526C345.928 123.686 349.044 124.847 352.055 126.008L351.516 127.408C351.827 127.528 352.137 127.648 352.446 127.768L352.989 126.369C356.188 127.611 359.267 128.852 362.218 130.088L361.638 131.472C361.948 131.602 362.257 131.731 362.565 131.861L363.148 130.48C366.34 131.828 369.378 133.17 372.252 134.502L371.621 135.863C371.927 136.005 372.231 136.147 372.532 136.288L373.169 134.93C376.357 136.424 379.338 137.904 382.096 139.366L381.394 140.691C381.687 140.847 381.978 141.002 382.267 141.157L382.977 139.836C386.147 141.54 389.011 143.218 391.547 144.858L390.732 146.118C391.016 146.301 391.295 146.485 391.57 146.667L392.4 145.417C395.585 147.53 398.217 149.581 400.247 151.549L399.203 152.626C399.435 152.851 399.659 153.075 399.873 153.296L400.951 152.253Z" stroke="black" stroke-width="3" stroke-dasharray="1 10"/>
<path d="M407.177 185.185C410.177 188.421 411.595 191.433 411.234 194.139L409.747 193.941C409.73 194.067 409.709 194.193 409.681 194.317C409.654 194.442 409.622 194.565 409.585 194.687L411.02 195.125C410.223 197.736 407.682 199.886 403.608 201.582L403.031 200.197C402.75 200.314 402.459 200.43 402.16 200.543L402.692 201.945C400.002 202.966 396.717 203.809 392.889 204.476L392.631 202.998C392.306 203.054 391.978 203.11 391.645 203.164L391.885 204.644C388.834 205.14 385.457 205.528 381.779 205.811L381.664 204.316C381.341 204.341 381.016 204.365 380.688 204.388L380.794 205.884C377.627 206.109 374.245 206.257 370.662 206.33L370.632 204.831C370.532 204.833 370.432 204.835 370.332 204.837C370.101 204.841 369.869 204.845 369.637 204.849L369.661 206.349C366.43 206.401 363.041 206.394 359.504 206.327L359.532 204.827C359.202 204.821 358.87 204.814 358.536 204.807L358.504 206.307C355.241 206.235 351.854 206.113 348.353 205.942L348.426 204.444C348.09 204.427 347.753 204.411 347.414 204.393L347.337 205.891C344.069 205.723 340.701 205.513 337.242 205.26L337.351 203.764C337.186 203.752 337.021 203.74 336.855 203.727C336.683 203.715 336.511 203.702 336.338 203.689L336.226 205.185C332.934 204.937 329.56 204.652 326.11 204.328L326.25 202.835C325.918 202.804 325.586 202.772 325.253 202.741L325.11 204.234C321.817 203.919 318.455 203.571 315.03 203.188L315.196 201.697C314.86 201.66 314.523 201.622 314.186 201.584L314.017 203.074C310.713 202.7 307.351 202.294 303.934 201.858L304.124 200.37L303.904 200.341C303.646 200.308 303.389 200.275 303.131 200.242L302.938 201.73C299.641 201.303 296.295 200.848 292.902 200.364L293.113 198.879C292.78 198.832 292.446 198.784 292.112 198.736L291.899 200.221C288.596 199.745 285.251 199.243 281.866 198.714L282.098 197.232C281.763 197.179 281.427 197.127 281.092 197.074L280.858 198.555C277.556 198.035 274.217 197.489 270.844 196.917L271.095 195.438C270.765 195.383 270.435 195.326 270.105 195.27L269.852 196.749C266.557 196.187 263.23 195.6 259.873 194.99L260.141 193.514C259.81 193.454 259.479 193.393 259.148 193.333L258.878 194.808C255.583 194.206 252.261 193.58 248.914 192.931L249.199 191.458C248.868 191.394 248.536 191.329 248.204 191.265L247.917 192.737C244.625 192.095 241.309 191.431 237.972 190.745L238.274 189.276C237.943 189.208 237.611 189.139 237.279 189.071L236.975 190.539C233.687 189.86 230.378 189.159 227.052 188.437L227.37 186.971L226.873 186.863L226.375 186.754L226.056 188.22C222.73 187.494 219.43 186.757 216.156 186.008L216.491 184.546C216.16 184.47 215.83 184.394 215.5 184.319L215.164 185.78C211.844 185.017 208.552 184.243 205.291 183.459L205.642 182C205.313 181.921 204.985 181.842 204.656 181.763L204.304 183.221C200.99 182.419 197.708 181.608 194.461 180.787L194.829 179.333C194.502 179.25 194.176 179.167 193.85 179.084L193.48 180.538C190.174 179.698 186.904 178.849 183.673 177.99L184.058 176.54C183.734 176.454 183.41 176.368 183.087 176.282L182.7 177.731C179.395 176.849 176.131 175.958 172.912 175.059L173.315 173.614C172.988 173.523 172.661 173.431 172.334 173.34L171.929 174.784C168.63 173.858 165.379 172.925 162.178 171.985L162.601 170.545C162.277 170.45 161.953 170.355 161.631 170.26L161.206 171.698C157.919 170.728 154.686 169.751 151.51 168.768L151.953 167.335C151.851 167.304 151.748 167.272 151.646 167.24C151.429 167.173 151.213 167.106 150.997 167.039L150.551 168.471C147.262 167.448 144.035 166.42 140.875 165.387L141.341 163.961C141.018 163.855 140.696 163.75 140.374 163.644L139.906 165.069C136.632 163.993 133.429 162.913 130.303 161.83L130.794 160.413C130.478 160.303 130.162 160.194 129.848 160.084L129.354 161.501C126.082 160.361 122.895 159.218 119.798 158.075L120.318 156.668C119.999 156.55 119.681 156.433 119.365 156.315L118.843 157.721C115.591 156.513 112.441 155.305 109.398 154.099L109.951 152.705C109.636 152.58 109.322 152.455 109.009 152.33L108.453 153.723C105.197 152.424 102.067 151.127 99.0694 149.836L99.6628 148.458C99.3567 148.326 99.052 148.194 98.7488 148.063L98.1512 149.439C94.906 148.029 91.8203 146.627 88.9039 145.236L89.5495 143.883C89.2485 143.739 88.9493 143.596 88.652 143.452L88.0008 144.804C84.7724 143.248 81.758 141.707 78.9712 140.187L79.6895 138.87C79.4011 138.713 79.1152 138.556 78.8318 138.399L78.1054 139.711C74.8777 137.925 71.968 136.168 69.3991 134.449L70.2331 133.203C69.9526 133.015 69.6764 132.828 69.4046 132.641L68.5563 133.879C65.3515 131.681 62.7138 129.549 60.6912 127.502L61.7581 126.448C61.5332 126.22 61.3171 125.995 61.1096 125.771L60.0097 126.791C57.0091 123.555 55.5917 120.543 55.9523 117.837L57.4392 118.036C57.456 117.909 57.478 117.784 57.5051 117.659C57.5322 117.535 57.5643 117.412 57.6016 117.29L56.1669 116.852C56.9636 114.241 59.5046 112.091 63.5787 110.395L64.1552 111.779C64.4369 111.662 64.7273 111.547 65.0263 111.433L64.4943 110.031C67.1844 109.01 70.4696 108.168 74.2979 107.501L74.5553 108.978C74.8801 108.922 75.209 108.867 75.5421 108.812L75.3018 107.332C78.3525 106.837 81.7292 106.448 85.4075 106.165L85.5226 107.66C85.8455 107.636 86.1709 107.611 86.4986 107.588L86.3926 106.092C89.5591 105.868 92.9413 105.719 96.5242 105.646L96.5548 107.146C96.8848 107.139 97.2165 107.133 97.55 107.127L97.5255 105.628C100.756 105.575 104.145 105.582 107.683 105.649L107.654 107.149C107.985 107.155 108.317 107.162 108.65 107.169L108.683 105.67C111.946 105.741 115.332 105.863 118.833 106.034L118.76 107.532C119.096 107.549 119.434 107.566 119.772 107.583L119.849 106.085C123.118 106.253 126.485 106.463 129.945 106.716L129.835 108.212C130.172 108.237 130.51 108.262 130.849 108.288L130.961 106.792C134.253 107.039 137.626 107.325 141.077 107.648L140.937 109.142C141.268 109.173 141.601 109.204 141.934 109.236L142.076 107.743C145.369 108.057 148.731 108.406 152.157 108.788L151.99 110.279C152.327 110.316 152.663 110.354 153.001 110.393L153.17 108.902C156.474 109.276 159.836 109.682 163.253 110.119L163.062 111.607C163.393 111.649 163.724 111.691 164.056 111.734L164.248 110.247C167.545 110.673 170.892 111.128 174.285 111.612L174.073 113.097C174.406 113.144 174.74 113.192 175.074 113.24L175.288 111.756C178.59 112.231 181.935 112.733 185.32 113.263L185.089 114.745C185.424 114.797 185.759 114.85 186.095 114.903L186.328 113.421C189.63 113.941 192.969 114.487 196.342 115.059L196.092 116.538C196.421 116.594 196.752 116.65 197.082 116.706L197.334 115.228C200.63 115.79 203.957 116.376 207.314 116.986L207.045 118.462C207.376 118.522 207.707 118.583 208.039 118.643L208.309 117.168C211.603 117.771 214.926 118.397 218.273 119.046L217.987 120.518C218.319 120.582 218.65 120.647 218.982 120.712L219.269 119.239C222.561 119.881 225.877 120.545 229.214 121.231L228.912 122.701C229.244 122.769 229.576 122.837 229.908 122.906L230.212 121.437C233.5 122.116 236.808 122.817 240.134 123.54L239.816 125.006L240.314 125.114L240.811 125.222L241.131 123.757C244.457 124.482 247.757 125.22 251.03 125.968L250.696 127.431C251.026 127.506 251.357 127.582 251.687 127.658L252.022 126.196C255.343 126.959 258.635 127.733 261.896 128.518L261.545 129.976C261.874 130.055 262.202 130.134 262.53 130.214L262.883 128.756C266.197 129.557 269.479 130.368 272.726 131.19L272.358 132.644C272.685 132.726 273.011 132.809 273.337 132.892L273.706 131.438C277.013 132.278 280.283 133.128 283.514 133.986L283.129 135.436C283.453 135.522 283.776 135.608 284.099 135.694L284.486 134.245C287.792 135.127 291.055 136.019 294.275 136.918L293.871 138.362C294.199 138.454 294.526 138.545 294.852 138.637L295.257 137.193C298.556 138.118 301.808 139.051 305.009 139.992L304.586 141.431C304.91 141.526 305.233 141.621 305.556 141.717L305.98 140.278C309.268 141.248 312.501 142.225 315.677 143.208L315.233 144.641C315.553 144.74 315.872 144.839 316.19 144.938L316.635 143.505C319.924 144.528 323.151 145.557 326.312 146.59L325.846 148.016C326.169 148.121 326.491 148.227 326.812 148.332L327.28 146.907C330.555 147.983 333.758 149.063 336.884 150.146L336.393 151.564C336.709 151.673 337.024 151.783 337.339 151.892L337.832 150.476C341.104 151.616 344.292 152.758 347.388 153.901L346.869 155.309C347.187 155.426 347.505 155.544 347.822 155.661L348.344 154.255C351.595 155.463 354.746 156.671 357.789 157.877L357.236 159.272C357.551 159.397 357.865 159.521 358.177 159.646L358.734 158.253C361.989 159.553 365.12 160.849 368.117 162.141L367.524 163.518C367.83 163.65 368.134 163.782 368.438 163.914L369.035 162.538C372.281 163.947 375.366 165.349 378.283 166.74L377.637 168.094C377.938 168.237 378.237 168.381 378.535 168.524L379.186 167.173C382.414 168.728 385.429 170.269 388.215 171.79L387.497 173.106C387.785 173.264 388.071 173.421 388.355 173.578L389.081 172.265C392.309 174.052 395.219 175.809 397.787 177.527L396.953 178.774C397.234 178.961 397.51 179.148 397.782 179.335L398.63 178.098C401.835 180.296 404.473 182.428 406.495 184.474L405.428 185.528C405.653 185.756 405.869 185.981 406.077 186.205L407.177 185.185Z" stroke="black" stroke-width="3" stroke-dasharray="1 10"/>
<path d="M407.208 225.857C410.084 229.096 411.424 232.114 411.048 234.838L409.562 234.633C409.545 234.761 409.522 234.887 409.495 235.013C409.468 235.138 409.436 235.263 409.399 235.386L410.835 235.817C410.045 238.451 407.571 240.639 403.61 242.389L403.004 241.017C402.721 241.142 402.429 241.265 402.128 241.387L402.688 242.778C400.03 243.848 396.778 244.741 392.981 245.459L392.703 243.986C392.39 244.045 392.073 244.103 391.752 244.16L392.014 245.637C389.001 246.171 385.665 246.6 382.027 246.925L381.893 245.431C381.56 245.461 381.223 245.49 380.884 245.518L381.008 247.012C377.869 247.272 374.514 247.457 370.958 247.567L370.911 246.068C370.573 246.078 370.234 246.088 369.892 246.097L369.932 247.597C366.737 247.682 363.384 247.708 359.883 247.676L359.897 246.176C359.561 246.173 359.223 246.169 358.884 246.165L358.866 247.665C355.632 247.625 352.275 247.536 348.802 247.398L348.862 245.899C348.53 245.886 348.197 245.872 347.863 245.858L347.8 247.357C344.536 247.219 341.172 247.039 337.713 246.817L337.81 245.32C337.477 245.298 337.144 245.277 336.809 245.255L336.71 246.751C333.45 246.535 330.107 246.281 326.688 245.991L326.815 244.496C326.482 244.468 326.148 244.439 325.814 244.41L325.684 245.905C322.404 245.62 319.053 245.302 315.638 244.95L315.792 243.458C315.455 243.423 315.118 243.388 314.78 243.353L314.624 244.845C311.352 244.502 308.021 244.129 304.634 243.726L304.812 242.236C304.481 242.197 304.15 242.157 303.819 242.117L303.639 243.607C300.358 243.211 297.026 242.788 293.646 242.335L293.845 240.849C293.679 240.826 293.512 240.804 293.346 240.782C293.179 240.759 293.012 240.737 292.845 240.714L292.645 242.201C289.36 241.757 286.031 241.287 282.661 240.79L282.879 239.306C282.545 239.257 282.21 239.208 281.875 239.158L281.655 240.641C278.376 240.154 275.059 239.642 271.706 239.105L271.943 237.624C271.615 237.572 271.286 237.519 270.957 237.466L270.718 238.947C267.44 238.418 264.128 237.866 260.785 237.29L261.04 235.812C260.711 235.755 260.381 235.698 260.051 235.641L259.795 237.119C256.518 236.551 253.211 235.96 249.878 235.347L250.15 233.872C249.82 233.811 249.49 233.751 249.159 233.689L248.887 235.164C245.612 234.559 242.312 233.931 238.989 233.283L239.276 231.81C238.946 231.746 238.616 231.681 238.285 231.617L237.997 233.089C234.725 232.447 231.432 231.784 228.119 231.1L228.422 229.631C228.092 229.563 227.762 229.495 227.432 229.427L227.128 230.895C223.861 230.218 220.575 229.521 217.273 228.804L217.591 227.338L217.097 227.231L216.602 227.123L216.283 228.588C212.981 227.868 209.703 227.136 206.45 226.395L206.784 224.932C206.455 224.857 206.126 224.782 205.798 224.707L205.463 226.169C202.166 225.413 198.895 224.647 195.653 223.872L196.002 222.413C195.675 222.334 195.348 222.256 195.021 222.177L194.67 223.636C191.378 222.845 188.116 222.044 184.885 221.233L185.25 219.778C184.925 219.697 184.599 219.615 184.274 219.533L183.908 220.988C180.621 220.16 177.368 219.322 174.152 218.477L174.533 217.026C174.209 216.941 173.886 216.856 173.562 216.771L173.18 218.221C169.9 217.355 166.658 216.481 163.457 215.599L163.855 214.153L163.613 214.086C163.373 214.02 163.133 213.954 162.893 213.887L162.493 215.333C159.22 214.428 155.99 213.515 152.806 212.595L153.222 211.154C152.896 211.06 152.571 210.966 152.247 210.872L151.829 212.312C148.557 211.363 145.334 210.407 142.162 209.445L142.597 208.01C142.275 207.912 141.953 207.814 141.632 207.717L141.195 209.151C137.933 208.158 134.726 207.158 131.578 206.154L132.033 204.725C131.715 204.624 131.398 204.522 131.081 204.421L130.623 205.849C127.375 204.808 124.19 203.763 121.072 202.714L121.55 201.292C121.365 201.23 121.18 201.168 120.996 201.106C120.859 201.06 120.723 201.014 120.586 200.968L120.106 202.389C116.853 201.289 113.674 200.186 110.572 199.081L111.075 197.668C110.759 197.556 110.444 197.443 110.129 197.33L109.623 198.742C106.392 197.585 103.247 196.427 100.192 195.269L100.724 193.866C100.41 193.747 100.098 193.628 99.7866 193.51L99.2521 194.911C96.0141 193.676 92.8794 192.442 89.8537 191.21L90.4192 189.821C90.1095 189.695 89.801 189.569 89.4936 189.443L88.9248 190.831C85.7087 189.513 82.6182 188.198 79.6606 186.891L80.2672 185.519C79.9572 185.382 79.6488 185.245 79.3418 185.108L78.7309 186.478C75.5332 185.052 72.4945 183.634 69.6242 182.229L70.2838 180.882C69.9768 180.732 69.6717 180.581 69.3687 180.431L68.7033 181.776C65.5143 180.197 62.5397 178.635 59.7928 177.094L60.5267 175.786C60.2301 175.619 59.9363 175.453 59.6452 175.287L58.9028 176.591C55.7292 174.783 52.8727 173.006 50.3548 171.268L51.2068 170.034C50.9386 169.849 50.6745 169.664 50.4145 169.48L49.5482 170.705C46.3939 168.473 43.8072 166.309 41.8345 164.231L42.9223 163.199C42.6989 162.963 42.4846 162.73 42.2792 162.499L41.1576 163.495C38.282 160.256 36.942 157.238 37.3175 154.514L38.8035 154.719C38.821 154.591 38.8435 154.465 38.8708 154.339C38.8982 154.214 38.9303 154.089 38.9674 153.966L37.5307 153.535C38.3212 150.901 40.7946 148.713 44.7561 146.963L45.3624 148.335C45.6453 148.21 45.9372 148.087 46.2381 147.965L45.678 146.574C48.3359 145.504 51.588 144.611 55.3844 143.893L55.6633 145.366C55.9763 145.307 56.2932 145.249 56.614 145.192L56.3522 143.715C59.3646 143.181 62.7013 142.752 66.3392 142.427L66.4727 143.921C66.8063 143.891 67.1426 143.862 67.4815 143.834L67.3577 142.34C70.4967 142.08 73.8515 141.895 77.4081 141.785L77.4545 143.284C77.7925 143.274 78.1323 143.264 78.474 143.255L78.4341 141.755C81.6288 141.67 84.9818 141.644 88.4829 141.676L88.469 143.176C88.8051 143.179 89.1426 143.183 89.4815 143.187L89.5 141.687C92.7336 141.727 96.0907 141.816 99.5637 141.954L99.5042 143.453C99.8361 143.466 100.169 143.48 100.503 143.494L100.566 141.995C103.83 142.133 107.194 142.313 110.653 142.535L110.556 144.032C110.889 144.054 111.222 144.075 111.557 144.097L111.656 142.601C114.916 142.817 118.259 143.071 121.678 143.361L121.551 144.856C121.884 144.884 122.218 144.913 122.552 144.942L122.682 143.448C125.962 143.732 129.312 144.05 132.728 144.402L132.574 145.894C132.911 145.929 133.248 145.964 133.585 145.999L133.741 144.507C137.014 144.85 140.345 145.223 143.732 145.626L143.554 147.116C143.885 147.155 144.216 147.195 144.547 147.235L144.727 145.745C148.008 146.141 151.34 146.564 154.719 147.017L154.521 148.503C154.853 148.548 155.187 148.593 155.52 148.638L155.721 147.151C159.006 147.595 162.335 148.065 165.705 148.562L165.487 150.046C165.821 150.095 166.156 150.144 166.491 150.194L166.711 148.711C169.99 149.198 173.307 149.71 176.66 150.247L176.423 151.728C176.751 151.78 177.08 151.833 177.409 151.886L177.648 150.405C180.926 150.934 184.238 151.486 187.58 152.062L187.326 153.54C187.655 153.597 187.985 153.654 188.315 153.711L188.571 152.233C191.848 152.801 195.154 153.392 198.488 154.005L198.216 155.48C198.546 155.541 198.876 155.601 199.206 155.663L199.479 154.188C202.754 154.793 206.054 155.421 209.377 156.069L209.09 157.542C209.42 157.606 209.75 157.671 210.08 157.735L210.369 156.263C213.64 156.905 216.934 157.568 220.247 158.252L219.944 159.721C220.273 159.789 220.603 159.857 220.934 159.925L221.238 158.457C224.505 159.134 227.791 159.831 231.093 160.548L230.775 162.014L231.269 162.121L231.763 162.229L232.083 160.764C235.385 161.484 238.663 162.216 241.916 162.957L241.582 164.42C241.911 164.495 242.24 164.57 242.568 164.645L242.903 163.183C246.2 163.939 249.471 164.705 252.713 165.48L252.364 166.939C252.691 167.018 253.018 167.096 253.345 167.175L253.696 165.716C256.988 166.507 260.25 167.308 263.48 168.119L263.115 169.574C263.441 169.655 263.767 169.737 264.092 169.819L264.458 168.364C267.745 169.192 270.998 170.03 274.214 170.875L273.833 172.326C274.157 172.411 274.48 172.496 274.803 172.581L275.186 171.131C278.466 171.997 281.707 172.871 284.909 173.753L284.51 175.199C284.832 175.287 285.153 175.376 285.473 175.465L285.873 174.019C289.146 174.924 292.376 175.837 295.56 176.757L295.144 178.198C295.47 178.292 295.795 178.386 296.119 178.48L296.537 177.04C299.809 177.989 303.032 178.945 306.204 179.907L305.769 181.342C306.091 181.44 306.413 181.538 306.734 181.635L307.171 180.201C310.433 181.194 313.64 182.194 316.788 183.198L316.332 184.627C316.651 184.728 316.968 184.83 317.285 184.931L317.743 183.503C320.991 184.544 324.176 185.589 327.294 186.638L326.816 188.06C327.138 188.168 327.459 188.276 327.779 188.384L328.26 186.963C331.512 188.063 334.692 189.166 337.794 190.271L337.29 191.684C337.607 191.796 337.922 191.909 338.237 192.022L338.743 190.61C341.974 191.767 345.119 192.925 348.174 194.083L347.642 195.486C347.956 195.605 348.268 195.724 348.579 195.842L349.114 194.441C352.352 195.676 355.486 196.91 358.512 198.142L357.947 199.531C358.256 199.657 358.565 199.783 358.872 199.909L359.441 198.521C362.657 199.839 365.748 201.154 368.705 202.461L368.099 203.833C368.409 203.97 368.717 204.107 369.024 204.244L369.635 202.874C372.833 204.3 375.871 205.718 378.742 207.123L378.082 208.47C378.389 208.62 378.694 208.771 378.997 208.921L379.663 207.576C382.852 209.155 385.826 210.717 388.573 212.258L387.839 213.566C388.136 213.733 388.43 213.899 388.721 214.065L389.463 212.761C392.637 214.569 395.493 216.346 398.011 218.084L397.159 219.318C397.427 219.503 397.691 219.688 397.951 219.872L398.818 218.647C401.972 220.879 404.559 223.043 406.531 225.121L405.444 226.153C405.667 226.389 405.881 226.622 406.087 226.853L407.208 225.857Z" stroke="black" stroke-width="3" stroke-dasharray="1 10"/>
<path d="M401.19 272.413C404.08 275.669 405.427 278.703 405.05 281.441L403.564 281.236C403.546 281.365 403.523 281.492 403.496 281.618C403.468 281.745 403.436 281.87 403.399 281.994L404.835 282.425C404.041 285.073 401.554 287.273 397.572 289.032L396.966 287.66C396.681 287.786 396.388 287.91 396.085 288.031L396.645 289.423C393.974 290.498 390.704 291.396 386.888 292.118L386.609 290.645C386.295 290.704 385.976 290.762 385.653 290.82L385.915 292.297C382.887 292.833 379.533 293.265 375.876 293.591L375.742 292.097C375.407 292.127 375.069 292.156 374.728 292.185L374.852 293.68C371.696 293.941 368.324 294.126 364.749 294.237L364.702 292.738C364.362 292.748 364.021 292.758 363.677 292.767L363.717 294.267C360.506 294.353 357.135 294.379 353.616 294.346L353.63 292.847C353.292 292.843 352.952 292.84 352.612 292.836L352.593 294.335C349.343 294.295 345.968 294.206 342.477 294.067L342.536 292.568C342.364 292.561 342.191 292.554 342.018 292.547C341.857 292.541 341.694 292.534 341.532 292.527L341.469 294.026C338.188 293.888 334.806 293.707 331.329 293.483L331.426 291.986C331.091 291.964 330.756 291.943 330.42 291.92L330.321 293.417C327.044 293.199 323.684 292.945 320.246 292.652L320.373 291.158C320.038 291.129 319.703 291.101 319.367 291.071L319.237 292.566C315.939 292.28 312.572 291.96 309.138 291.606L309.292 290.114C308.954 290.079 308.615 290.044 308.275 290.008L308.119 291.5C304.83 291.156 301.481 290.781 298.077 290.376L298.254 288.886C297.922 288.847 297.589 288.807 297.256 288.767L297.076 290.256C293.778 289.858 290.429 289.432 287.031 288.978L287.23 287.491C287.075 287.47 286.92 287.45 286.764 287.429C286.585 287.405 286.405 287.38 286.225 287.356L286.024 288.843C282.722 288.397 279.376 287.924 275.988 287.425L276.206 285.941C275.87 285.891 275.534 285.841 275.197 285.791L274.976 287.275C271.68 286.785 268.346 286.271 264.975 285.731L265.213 284.25C265.005 284.217 264.798 284.183 264.59 284.15L264.221 284.091L263.982 285.571C260.687 285.04 257.358 284.485 253.998 283.906L254.252 282.428C253.921 282.371 253.59 282.314 253.258 282.256L253.002 283.734C249.708 283.163 246.384 282.569 243.033 281.953L243.304 280.478C242.973 280.417 242.641 280.356 242.309 280.294L242.036 281.769C238.744 281.16 235.427 280.53 232.086 279.878L232.374 278.405C232.042 278.341 231.71 278.276 231.378 278.211L231.089 279.682C227.801 279.037 224.49 278.371 221.16 277.684L221.463 276.215C221.131 276.147 220.8 276.078 220.468 276.009L220.163 277.478C216.879 276.797 213.576 276.096 210.256 275.375L210.575 273.909L210.078 273.801L209.581 273.693L209.261 275.159C205.942 274.435 202.647 273.699 199.377 272.953L199.711 271.491C199.38 271.416 199.05 271.34 198.72 271.264L198.385 272.727C195.07 271.967 191.782 271.197 188.523 270.417L188.872 268.958C188.543 268.88 188.214 268.801 187.886 268.722L187.535 270.18C184.226 269.385 180.946 268.58 177.699 267.765L178.064 266.31C177.736 266.228 177.409 266.146 177.082 266.063L176.716 267.518C173.412 266.686 170.142 265.844 166.909 264.994L167.29 263.543C167.137 263.503 166.984 263.463 166.83 263.423C166.658 263.377 166.486 263.332 166.315 263.287L165.932 264.737C162.635 263.867 159.376 262.988 156.158 262.101L156.557 260.655C156.233 260.566 155.911 260.477 155.589 260.388L155.189 261.834C151.899 260.924 148.652 260.006 145.451 259.081L145.867 257.64C145.54 257.546 145.213 257.451 144.887 257.357L144.469 258.797C141.18 257.843 137.939 256.882 134.751 255.915L135.186 254.48C134.862 254.381 134.539 254.283 134.216 254.185L133.779 255.62C130.5 254.621 127.276 253.616 124.111 252.607L124.567 251.178C124.247 251.076 123.928 250.974 123.609 250.872L123.152 252.3C119.887 251.254 116.685 250.203 113.55 249.148L114.028 247.727C113.705 247.618 113.382 247.509 113.06 247.4L112.579 248.821C109.31 247.716 106.114 246.607 102.995 245.497L103.499 244.084C103.181 243.97 102.864 243.857 102.547 243.744L102.041 245.156C98.7936 243.993 95.6317 242.828 92.5605 241.664L93.0923 240.261C92.7774 240.142 92.4634 240.022 92.1504 239.903L91.6159 241.305C88.3609 240.063 85.2097 238.822 82.1681 237.584L82.7336 236.195C82.4223 236.068 82.1122 235.941 81.8032 235.815L81.2343 237.203C78.0013 235.878 74.8947 234.556 71.9215 233.242L72.5281 231.87C72.2165 231.732 71.9064 231.595 71.5978 231.457L70.987 232.827C67.7724 231.394 64.7178 229.969 61.8324 228.556L62.492 227.209C62.1833 227.058 61.8767 226.907 61.572 226.756L60.9066 228.1C57.7009 226.513 54.7107 224.943 51.9493 223.394L52.6832 222.085C52.3851 221.918 52.0897 221.751 51.7971 221.585L51.0547 222.888C47.8644 221.071 44.9929 219.284 42.4618 217.537L43.3138 216.303C43.0442 216.117 42.7786 215.931 42.5172 215.746L41.651 216.971C38.4801 214.728 35.8799 212.552 33.8967 210.464L34.9845 209.431C34.76 209.194 34.5444 208.96 34.3379 208.727L33.2163 209.723C30.3256 206.468 28.9785 203.433 29.356 200.695L30.842 200.9C30.8597 200.772 30.8823 200.644 30.9098 200.518C30.9373 200.392 30.9697 200.266 31.007 200.142L29.5703 199.711C30.3649 197.064 32.8514 194.864 36.8337 193.104L37.4399 194.476C37.7244 194.351 38.0179 194.227 38.3205 194.105L37.7604 192.714C40.4322 191.638 43.7014 190.74 47.5177 190.018L47.7967 191.492C48.1113 191.432 48.4299 191.374 48.7524 191.317L48.4906 189.84C51.5189 189.303 54.8731 188.872 58.5301 188.545L58.6636 190.039C58.999 190.009 59.337 189.98 59.6777 189.952L59.554 188.457C62.7094 188.196 66.0819 188.01 69.6571 187.899L69.7035 189.399C70.0433 189.388 70.385 189.378 70.7285 189.369L70.6885 187.87C73.9 187.784 77.2706 187.758 80.7901 187.79L80.7762 189.29C81.1141 189.293 81.4534 189.297 81.794 189.301L81.8125 187.801C85.0631 187.841 88.4379 187.931 91.9291 188.069L91.8696 189.568C92.2033 189.581 92.538 189.595 92.8738 189.609L92.937 188.111C96.2179 188.249 99.5998 188.43 103.076 188.654L102.98 190.15C103.314 190.172 103.65 190.194 103.986 190.216L104.085 188.719C107.362 188.937 110.722 189.192 114.16 189.484L114.033 190.979C114.367 191.007 114.703 191.036 115.039 191.065L115.169 189.571C118.466 189.857 121.834 190.177 125.268 190.53L125.114 192.023C125.452 192.057 125.791 192.093 126.13 192.128L126.286 190.636C129.576 190.98 132.925 191.355 136.329 191.761L136.152 193.25C136.484 193.29 136.817 193.33 137.15 193.37L137.329 191.881C140.628 192.278 143.977 192.704 147.375 193.158L147.176 194.645C147.51 194.69 147.845 194.735 148.181 194.78L148.382 193.294C151.684 193.74 155.03 194.212 158.418 194.712L158.199 196.196C158.536 196.245 158.872 196.295 159.209 196.345L159.429 194.861C162.725 195.351 166.06 195.866 169.43 196.405L169.193 197.887C169.523 197.939 169.854 197.993 170.185 198.046L170.423 196.565C173.719 197.096 177.048 197.652 180.408 198.23L180.154 199.709C180.485 199.766 180.816 199.823 181.148 199.88L181.404 198.402C184.698 198.973 188.022 199.567 191.373 200.183L191.101 201.659C191.433 201.72 191.765 201.781 192.097 201.842L192.369 200.367C195.661 200.976 198.979 201.607 202.32 202.259L202.032 203.731C202.364 203.796 202.696 203.861 203.028 203.926L203.317 202.454C206.605 203.099 209.916 203.765 213.246 204.452L212.943 205.921C213.274 205.99 213.606 206.058 213.938 206.127L214.243 204.659C217.527 205.339 220.829 206.04 224.149 206.761L223.831 208.227L224.328 208.335L224.825 208.443L225.145 206.978C228.464 207.702 231.759 208.437 235.029 209.183L234.695 210.645C235.026 210.721 235.356 210.796 235.686 210.872L236.021 209.41C239.336 210.169 242.624 210.939 245.883 211.719L245.533 213.178C245.863 213.257 246.192 213.336 246.52 213.415L246.871 211.956C250.18 212.752 253.46 213.557 256.707 214.371L256.342 215.826C256.669 215.908 256.997 215.991 257.323 216.073L257.69 214.619C260.993 215.451 264.263 216.292 267.497 217.142L267.116 218.593C267.441 218.679 267.766 218.764 268.091 218.85L268.474 217.4C271.771 218.27 275.029 219.149 278.248 220.035L277.849 221.481C278.172 221.57 278.495 221.659 278.817 221.748L279.217 220.303C282.507 221.213 285.754 222.13 288.955 223.055L288.539 224.496C288.866 224.591 289.193 224.685 289.519 224.78L289.937 223.339C293.226 224.293 296.466 225.254 299.655 226.221L299.22 227.657C299.544 227.755 299.867 227.853 300.19 227.952L300.627 226.517C303.906 227.515 307.13 228.52 310.295 229.53L309.839 230.959C310.159 231.061 310.478 231.163 310.796 231.265L311.254 229.836C314.519 230.883 317.721 231.934 320.856 232.988L320.377 234.41C320.701 234.518 321.024 234.627 321.346 234.736L321.826 233.315C325.096 234.42 328.292 235.529 331.41 236.64L330.907 238.053C331.225 238.166 331.542 238.279 331.859 238.393L332.364 236.98C335.612 238.143 338.774 239.308 341.845 240.473L341.313 241.875C341.628 241.995 341.942 242.114 342.255 242.233L342.79 240.832C346.045 242.073 349.196 243.314 352.238 244.552L351.672 245.942C351.983 246.068 352.294 246.195 352.603 246.322L353.171 244.934C356.404 246.259 359.511 247.58 362.484 248.895L361.878 250.266C362.189 250.404 362.499 250.542 362.808 250.679L363.419 249.31C366.633 250.743 369.688 252.168 372.573 253.581L371.914 254.928C372.222 255.079 372.529 255.23 372.834 255.381L373.499 254.036C376.705 255.623 379.695 257.194 382.456 258.743L381.723 260.051C382.021 260.218 382.316 260.385 382.609 260.552L383.351 259.248C386.541 261.066 389.413 262.852 391.944 264.599L391.092 265.834C391.362 266.02 391.627 266.205 391.889 266.39L392.755 265.165C395.926 267.409 398.526 269.584 400.509 271.673L399.421 272.706C399.646 272.942 399.861 273.177 400.068 273.409L401.19 272.413Z" stroke="black" stroke-width="3" stroke-dasharray="1 10"/>
<path d="M381.914 309.042C384.752 312.338 386.066 315.423 385.671 318.218L384.186 318.009C384.167 318.14 384.144 318.27 384.115 318.4C384.087 318.529 384.054 318.658 384.017 318.785L385.455 319.212C384.652 321.918 382.175 324.178 378.223 325.996L377.596 324.633C377.317 324.761 377.03 324.888 376.733 325.012L377.314 326.395C374.636 327.52 371.355 328.463 367.525 329.226L367.232 327.755C366.91 327.819 366.584 327.882 366.253 327.943L366.528 329.418C363.472 329.988 360.084 330.448 356.391 330.799L356.249 329.306C355.917 329.337 355.582 329.368 355.245 329.398L355.377 330.892C352.195 331.173 348.793 331.376 345.188 331.501L345.136 330.002C344.805 330.013 344.473 330.024 344.139 330.034L344.185 331.533C340.933 331.632 337.52 331.668 333.956 331.642L333.967 330.142C333.636 330.14 333.303 330.137 332.968 330.133L332.953 331.633C329.671 331.599 326.265 331.513 322.743 331.376L322.801 329.877C322.458 329.863 322.114 329.85 321.768 329.835L321.706 331.334C318.416 331.197 315.027 331.016 311.546 330.791L311.642 329.294C311.479 329.283 311.316 329.272 311.152 329.262C310.977 329.25 310.8 329.238 310.624 329.227L310.524 330.723C307.206 330.502 303.806 330.24 300.328 329.939L300.457 328.445C300.124 328.416 299.789 328.387 299.454 328.357L299.322 329.851C296.006 329.558 292.621 329.23 289.172 328.865L289.329 327.374C289.138 327.354 288.946 327.333 288.755 327.313C288.607 327.297 288.46 327.281 288.313 327.266L288.153 328.757C284.823 328.4 281.434 328.01 277.99 327.588L278.173 326.099C277.84 326.058 277.507 326.017 277.173 325.976L276.989 327.464C273.668 327.052 270.298 326.61 266.88 326.137L267.086 324.651C266.906 324.627 266.725 324.602 266.545 324.576C266.39 324.555 266.234 324.533 266.078 324.511L265.871 325.997C262.545 325.533 259.176 325.04 255.767 324.519L255.993 323.036C255.656 322.984 255.319 322.933 254.981 322.88L254.752 324.363C251.426 323.85 248.062 323.311 244.664 322.744L244.91 321.265C244.578 321.209 244.246 321.154 243.913 321.098L243.665 322.577C240.347 322.02 236.996 321.438 233.616 320.83L233.881 319.354C233.548 319.294 233.214 319.234 232.881 319.174L232.614 320.65C229.296 320.049 225.951 319.425 222.58 318.776L222.864 317.303C222.53 317.239 222.196 317.174 221.862 317.11L221.577 318.582C218.262 317.94 214.924 317.275 211.564 316.587L211.865 315.117C211.735 315.091 211.604 315.064 211.474 315.037C211.27 314.995 211.067 314.953 210.863 314.911L210.56 316.381C207.25 315.699 203.919 314.994 200.57 314.267L200.888 312.801L200.388 312.692L199.887 312.583L199.567 314.049C196.219 313.318 192.897 312.574 189.602 311.819L189.938 310.357C189.605 310.28 189.273 310.204 188.941 310.127L188.604 311.589C185.262 310.819 181.949 310.036 178.667 309.242L179.02 307.784C178.898 307.755 178.775 307.725 178.653 307.695C178.445 307.645 178.236 307.594 178.028 307.544L177.674 309.001C174.339 308.19 171.036 307.368 167.77 306.535L168.14 305.082C167.812 304.998 167.483 304.914 167.156 304.83L166.783 306.283C163.456 305.431 160.167 304.568 156.917 303.695L157.306 302.246C156.98 302.159 156.655 302.071 156.33 301.984L155.939 303.432C152.613 302.534 149.329 301.627 146.091 300.711L146.499 299.267C146.17 299.174 145.841 299.081 145.513 298.988L145.103 300.431C141.786 299.488 138.517 298.535 135.299 297.575L135.728 296.138C135.486 296.066 135.244 295.994 135.003 295.922C134.92 295.897 134.836 295.872 134.753 295.847L134.322 297.283C131.018 296.293 127.768 295.294 124.577 294.289L125.028 292.858C124.707 292.757 124.387 292.656 124.067 292.555L123.614 293.985C120.307 292.938 117.062 291.884 113.886 290.825L114.36 289.402C114.036 289.294 113.713 289.186 113.391 289.077L112.914 290.5C109.625 289.397 106.409 288.289 103.272 287.177L103.773 285.763C103.456 285.651 103.14 285.538 102.824 285.426L102.321 286.839C99.0323 285.667 95.8306 284.492 92.7209 283.314L93.252 281.911C92.933 281.791 92.615 281.67 92.298 281.549L91.764 282.951C88.5034 281.709 85.3458 280.465 82.2971 279.222L82.8633 277.833C82.543 277.702 82.224 277.572 81.9062 277.441L81.3364 278.829C78.0756 277.49 74.942 276.152 71.9434 274.819L72.5526 273.449C72.2471 273.313 71.943 273.177 71.6403 273.042L71.0268 274.41C67.7751 272.953 64.6859 271.501 61.7692 270.06L62.4337 268.715C62.1341 268.567 61.8364 268.419 61.5405 268.272L60.8703 269.614C57.643 268.002 54.6335 266.403 51.8556 264.824L52.5968 263.52C52.3025 263.353 52.011 263.186 51.7221 263.019L50.9723 264.319C47.7592 262.464 44.8696 260.638 42.3264 258.849L43.1893 257.622C42.9143 257.429 42.6436 257.236 42.3772 257.044L41.4994 258.26C38.3326 255.975 35.7408 253.753 33.7724 251.617L34.8756 250.601C34.6578 250.364 34.4487 250.13 34.2483 249.897L33.1117 250.876C30.2729 247.58 28.9595 244.495 29.3544 241.7L30.8397 241.909C30.8582 241.778 30.8816 241.648 30.9098 241.518C30.938 241.388 30.971 241.26 31.0087 241.133L29.5706 240.706C30.3733 238 32.85 235.74 36.8021 233.922L37.429 235.285C37.7079 235.156 37.9956 235.03 38.292 234.905L37.711 233.523C40.3894 232.397 43.67 231.454 47.5001 230.692L47.793 232.163C48.1151 232.099 48.4415 232.036 48.772 231.975L48.4972 230.5C51.5537 229.93 54.941 229.47 58.6342 229.119L58.7762 230.612C59.1082 230.581 59.4428 230.55 59.78 230.52L59.6479 229.026C62.8306 228.745 66.2322 228.542 69.8375 228.417L69.8893 229.916C70.2198 229.905 70.5521 229.894 70.8861 229.884L70.8407 228.385C74.0925 228.286 77.5055 228.25 81.0688 228.276L81.058 229.776C81.3896 229.778 81.7226 229.781 82.057 229.785L82.0726 228.285C85.3539 228.319 88.7599 228.405 92.2823 228.542L92.2238 230.041C92.5671 230.054 92.9115 230.068 93.257 230.083L93.3194 228.584C96.6088 228.721 99.9978 228.902 103.48 229.127L103.383 230.624C103.721 230.646 104.061 230.668 104.401 230.691L104.501 229.195C107.819 229.416 111.219 229.678 114.697 229.979L114.568 231.473C114.902 231.502 115.236 231.531 115.571 231.561L115.703 230.067C119.019 230.36 122.404 230.688 125.854 231.052L125.696 232.544C126.034 232.58 126.373 232.616 126.713 232.652L126.873 231.161C130.202 231.518 133.591 231.907 137.035 232.33L136.852 233.819C137.185 233.859 137.518 233.901 137.852 233.942L138.037 232.453C141.357 232.866 144.728 233.308 148.145 233.781L147.939 235.266C148.275 235.313 148.611 235.359 148.947 235.406L149.154 233.921C152.48 234.385 155.849 234.878 159.258 235.399L159.032 236.882C159.369 236.934 159.707 236.985 160.045 237.037L160.273 235.555C163.599 236.068 166.963 236.607 170.361 237.173L170.115 238.653C170.447 238.708 170.779 238.764 171.112 238.82L171.36 237.341C174.679 237.898 178.03 238.48 181.41 239.088L181.144 240.564C181.477 240.624 181.811 240.684 182.144 240.744L182.412 239.268C185.729 239.869 189.074 240.493 192.445 241.142L192.161 242.615C192.495 242.679 192.829 242.744 193.163 242.808L193.448 241.336C196.763 241.977 200.101 242.643 203.461 243.331L203.16 244.801C203.494 244.869 203.828 244.938 204.163 245.006L204.465 243.537C207.776 244.219 211.106 244.924 214.455 245.651L214.137 247.117L214.638 247.226L215.138 247.335L215.458 245.869C218.806 246.6 222.128 247.344 225.423 248.099L225.087 249.561C225.42 249.637 225.753 249.714 226.085 249.79L226.422 248.329C229.764 249.099 233.077 249.882 236.358 250.676L236.005 252.134C236.336 252.214 236.667 252.294 236.997 252.374L237.351 250.917C240.687 251.727 243.989 252.55 247.256 253.383L246.885 254.836C247.214 254.92 247.542 255.004 247.87 255.088L248.242 253.635C251.569 254.487 254.859 255.35 258.108 256.223L257.719 257.672C258.045 257.759 258.37 257.847 258.695 257.934L259.086 256.486C262.412 257.384 265.696 258.291 268.934 259.207L268.526 260.65C268.855 260.744 269.184 260.837 269.512 260.93L269.922 259.487C273.239 260.43 276.509 261.382 279.727 262.342L279.298 263.78C279.623 263.877 279.948 263.974 280.272 264.071L280.703 262.634C284.007 263.625 287.257 264.624 290.448 265.629L289.998 267.059C290.318 267.161 290.639 267.262 290.958 267.363L291.411 265.933C294.719 266.98 297.963 268.034 301.14 269.093L300.665 270.516C300.989 270.624 301.312 270.732 301.635 270.84L302.111 269.418C305.4 270.521 308.616 271.629 311.754 272.741L311.253 274.155C311.57 274.267 311.886 274.379 312.201 274.492L312.705 273.079C315.993 274.251 319.195 275.426 322.304 276.604L321.773 278.006C322.092 278.127 322.41 278.248 322.727 278.369L323.261 276.967C326.522 278.209 329.679 279.453 332.728 280.696L332.162 282.085C332.482 282.215 332.801 282.346 333.119 282.476L333.689 281.089C336.95 282.428 340.083 283.766 343.082 285.098L342.473 286.469C342.778 286.605 343.082 286.741 343.385 286.876L343.999 285.508C347.25 286.965 350.339 288.417 353.256 289.858L352.592 291.203C352.891 291.351 353.189 291.499 353.485 291.646L354.155 290.304C357.382 291.916 360.392 293.515 363.17 295.093L362.428 296.397C362.723 296.565 363.014 296.732 363.303 296.898L364.053 295.599C367.266 297.454 370.156 299.28 372.699 301.069L371.836 302.296C372.111 302.489 372.382 302.682 372.648 302.874L373.526 301.658C376.693 303.943 379.284 306.164 381.253 308.301L380.15 309.317C380.367 309.554 380.577 309.788 380.777 310.021L381.914 309.042Z" stroke="black" stroke-width="3" stroke-dasharray="1 10"/>
<path d="M354.999 342.764C357.809 345.883 359.128 348.797 358.769 351.427L357.283 351.224C357.266 351.346 357.245 351.466 357.219 351.586C357.193 351.706 357.162 351.825 357.126 351.943L358.563 352.376C357.796 354.917 355.385 357.019 351.533 358.688L350.937 357.311C350.665 357.429 350.384 357.545 350.094 357.659L350.645 359.055C348.065 360.072 344.913 360.914 341.239 361.584L340.97 360.108C340.652 360.166 340.33 360.222 340.004 360.278L340.255 361.757C337.338 362.251 334.111 362.642 330.599 362.93L330.476 361.435C330.159 361.461 329.84 361.486 329.518 361.511L329.63 363.006C326.585 363.236 323.333 363.39 319.888 363.47L319.854 361.97C319.529 361.978 319.203 361.985 318.875 361.991L318.903 363.49C315.803 363.549 312.552 363.547 309.16 363.487L309.187 361.987C308.862 361.981 308.535 361.975 308.207 361.968L308.176 363.468C305.045 363.402 301.797 363.286 298.44 363.121L298.514 361.623C298.191 361.607 297.867 361.591 297.542 361.574L297.464 363.072C294.309 362.909 291.06 362.703 287.723 362.454L287.835 360.958C287.515 360.935 287.194 360.91 286.873 360.886L286.758 362.381C283.592 362.138 280.349 361.857 277.033 361.538L277.177 360.045C277.048 360.033 276.918 360.02 276.788 360.007C276.592 359.988 276.395 359.969 276.197 359.95L276.051 361.443C272.888 361.132 269.661 360.788 266.375 360.409L266.546 358.918C266.225 358.881 265.904 358.844 265.582 358.806L265.407 360.296C262.231 359.925 259 359.521 255.718 359.087L255.916 357.6C255.591 357.557 255.266 357.513 254.941 357.47L254.742 358.956C251.574 358.532 248.36 358.078 245.103 357.595L245.323 356.111C245.004 356.064 244.684 356.016 244.364 355.968L244.141 357.451C240.968 356.976 237.754 356.473 234.504 355.943L234.746 354.462L234.445 354.413C234.224 354.377 234.002 354.341 233.781 354.304L233.537 355.784C230.364 355.262 227.156 354.714 223.917 354.14L224.179 352.663C223.862 352.607 223.545 352.55 223.227 352.493L222.963 353.97C219.797 353.405 216.601 352.814 213.38 352.199L213.661 350.726C213.343 350.665 213.025 350.604 212.706 350.543L212.423 352.016C209.258 351.408 206.067 350.776 202.855 350.121L203.155 348.651C202.837 348.586 202.518 348.521 202.199 348.455L201.897 349.925C198.735 349.275 195.551 348.603 192.35 347.908L192.668 346.442L192.19 346.338L191.711 346.234L191.391 347.7C188.191 347.001 185.016 346.289 181.87 345.565L182.206 344.103C181.889 344.03 181.572 343.957 181.255 343.884L180.917 345.345C177.723 344.606 174.558 343.855 171.427 343.093L171.781 341.635C171.466 341.558 171.151 341.482 170.837 341.405L170.48 342.862C167.295 342.082 164.143 341.29 161.028 340.489L161.402 339.036C161.089 338.956 160.777 338.875 160.465 338.794L160.09 340.247C156.905 339.423 153.76 338.588 150.656 337.744L151.05 336.296C150.935 336.265 150.82 336.234 150.705 336.202C150.505 336.148 150.306 336.094 150.107 336.039L149.711 337.486C146.535 336.618 143.403 335.739 140.319 334.852L140.733 333.411C140.422 333.321 140.111 333.232 139.801 333.142L139.385 334.583C136.222 333.669 133.11 332.746 130.052 331.815L130.489 330.38C130.175 330.285 129.861 330.189 129.548 330.093L129.11 331.528C125.944 330.559 122.838 329.583 119.794 328.601L120.255 327.173C119.946 327.074 119.638 326.974 119.331 326.874L118.868 328.301C115.721 327.28 112.643 326.252 109.637 325.22L110.125 323.801C109.814 323.694 109.503 323.587 109.194 323.48L108.704 324.898C105.556 323.81 102.489 322.718 99.5087 321.623L100.026 320.215C99.7234 320.104 99.4217 319.993 99.1209 319.881L98.6007 321.288C95.4623 320.128 92.4214 318.965 89.4841 317.801L90.0364 316.407C89.7337 316.287 89.4321 316.167 89.1317 316.047L88.5759 317.44C85.4544 316.195 82.4524 314.95 79.5774 313.709L80.1721 312.332C79.871 312.202 79.5713 312.072 79.273 311.942L78.674 313.317C75.5641 311.962 72.6066 310.612 69.8112 309.271L70.4601 307.919C70.1643 307.777 69.8703 307.635 69.5782 307.493L68.9234 308.843C65.8237 307.339 62.9298 305.846 60.2554 304.372L60.9797 303.058C60.6969 302.902 60.4167 302.747 60.139 302.591L59.4062 303.9C56.3311 302.178 53.5589 300.482 51.1118 298.819L51.9546 297.578C51.6809 297.392 51.4116 297.207 51.1465 297.022L50.2886 298.253C47.2253 296.117 44.708 294.04 42.7849 292.043L43.8654 291.003C43.6495 290.779 43.4423 290.556 43.2437 290.336L42.1293 291.34C39.3194 288.222 38.0001 285.307 38.3594 282.677L39.8456 282.88C39.8622 282.759 39.8835 282.638 39.9096 282.518C39.9357 282.398 39.9665 282.279 40.002 282.162L38.5659 281.729C39.3323 279.187 41.7435 277.085 45.5954 275.417L46.1915 276.793C46.4638 276.675 46.7447 276.559 47.0342 276.445L46.4839 275.049C49.0631 274.032 52.2157 273.19 55.8897 272.521L56.1586 273.996C56.4764 273.938 56.7985 273.882 57.1247 273.826L56.8738 272.348C59.7905 271.853 63.0171 271.462 66.5296 271.174L66.6521 272.669C66.9693 272.643 67.2889 272.618 67.6109 272.594L67.4981 271.098C70.5434 270.868 73.7958 270.714 77.2401 270.634L77.2747 272.134C77.5993 272.127 77.9257 272.12 78.2537 272.114L78.2256 270.614C81.3257 270.556 84.5768 270.557 87.9684 270.618L87.9416 272.117C88.2669 272.123 88.5934 272.129 88.9213 272.136L88.9529 270.637C92.0838 270.703 95.3316 270.818 98.6882 270.983L98.6146 272.481C98.9377 272.497 99.2618 272.513 99.5869 272.53L99.6643 271.032C102.819 271.195 106.069 271.401 109.405 271.65L109.294 273.146C109.614 273.17 109.934 273.194 110.256 273.219L110.37 271.723C113.536 271.966 116.78 272.247 120.095 272.566L119.951 274.059C120.277 274.091 120.604 274.122 120.931 274.154L121.078 272.662C124.24 272.972 127.467 273.317 130.754 273.696L130.582 275.186C130.903 275.223 131.225 275.26 131.547 275.298L131.721 273.808C134.897 274.18 138.128 274.583 141.41 275.018L141.213 276.505C141.537 276.548 141.862 276.591 142.188 276.635L142.387 275.148C145.555 275.572 148.769 276.026 152.025 276.51L151.805 277.993C152.125 278.041 152.445 278.088 152.765 278.136L152.987 276.653C156.161 277.128 159.374 277.631 162.624 278.161L162.383 279.642C162.704 279.694 163.026 279.747 163.348 279.8L163.591 278.32C166.765 278.842 169.973 279.39 173.211 279.964L172.949 281.441C173.266 281.498 173.584 281.554 173.901 281.611L174.165 280.134C177.331 280.7 180.527 281.29 183.749 281.905L183.467 283.378C183.785 283.439 184.104 283.5 184.422 283.561L184.705 282.088C187.871 282.696 191.061 283.328 194.273 283.984L193.973 285.453C194.292 285.518 194.611 285.584 194.93 285.649L195.232 284.18C198.394 284.829 201.577 285.501 204.779 286.196L204.461 287.662L204.939 287.766L205.417 287.87L205.737 286.405C208.938 287.103 212.112 287.815 215.259 288.539L214.922 290.001C215.24 290.074 215.557 290.147 215.874 290.22L216.212 288.759C219.406 289.498 222.57 290.249 225.702 291.012L225.347 292.469C225.662 292.546 225.977 292.623 226.292 292.7L226.648 291.243C229.834 292.022 232.986 292.814 236.101 293.616L235.727 295.068C236.039 295.149 236.351 295.229 236.663 295.31L237.039 293.858C240.223 294.682 243.368 295.516 246.472 296.36L246.078 297.808C246.393 297.893 246.708 297.979 247.022 298.065L247.417 296.618C250.594 297.487 253.725 298.365 256.81 299.252L256.395 300.693C256.706 300.783 257.017 300.873 257.327 300.962L257.744 299.521C260.907 300.435 264.019 301.358 267.076 302.289L266.64 303.724C266.954 303.82 267.267 303.915 267.58 304.011L268.019 302.577C271.184 303.545 274.291 304.521 277.334 305.504L276.873 306.931C277.182 307.031 277.49 307.13 277.797 307.23L278.26 305.803C281.407 306.825 284.486 307.852 287.491 308.885L287.004 310.303C287.315 310.41 287.625 310.517 287.935 310.624L288.424 309.206C291.572 310.294 294.639 311.386 297.62 312.481L297.102 313.889C297.405 314.001 297.707 314.112 298.007 314.223L298.528 312.816C301.666 313.977 304.707 315.14 307.644 316.303L307.092 317.698C307.395 317.817 307.696 317.937 307.997 318.057L308.553 316.664C311.674 317.909 314.676 319.154 317.551 320.395L316.956 321.773C317.257 321.903 317.557 322.033 317.855 322.162L318.454 320.787C321.564 322.142 324.522 323.492 327.317 324.833L326.668 326.186C326.964 326.328 327.258 326.47 327.55 326.611L328.205 325.262C331.305 326.766 334.199 328.258 336.873 329.733L336.149 331.046C336.432 331.202 336.712 331.358 336.989 331.513L337.722 330.204C340.797 331.926 343.57 333.623 346.017 335.285L345.174 336.526C345.448 336.712 345.717 336.897 345.982 337.082L346.84 335.851C349.903 337.987 352.42 340.064 354.343 342.061L353.263 343.101C353.479 343.326 353.686 343.548 353.885 343.768L354.999 342.764Z" stroke="black" stroke-width="3" stroke-dasharray="1 10"/>
<path d="M320.946 371.336C324.225 374.468 325.837 377.382 325.531 379.972L324.041 379.796C324.027 379.915 324.007 380.033 323.982 380.15C323.957 380.267 323.925 380.382 323.889 380.497L325.317 380.956C324.519 383.439 321.841 385.42 317.557 386.905L317.066 385.487C316.776 385.588 316.478 385.686 316.171 385.782L316.619 387.214C313.88 388.073 310.554 388.749 306.704 389.245L306.513 387.757C306.192 387.798 305.867 387.838 305.539 387.877L305.714 389.366C302.654 389.727 299.281 389.979 295.623 390.122L295.564 388.623C295.235 388.636 294.903 388.648 294.569 388.659L294.619 390.158C291.453 390.264 288.081 390.29 284.522 390.237L284.544 388.738C284.21 388.733 283.874 388.727 283.536 388.721L283.508 390.221C280.285 390.16 276.912 390.037 273.402 389.85L273.482 388.353C273.144 388.335 272.804 388.316 272.464 388.297L272.38 389.795C269.132 389.612 265.769 389.377 262.302 389.089L262.426 387.594C262.089 387.566 261.75 387.537 261.41 387.508L261.282 389.003C258.02 388.724 254.669 388.399 251.234 388.028L251.395 386.536C251.059 386.5 250.721 386.463 250.383 386.426L250.219 387.917C246.949 387.557 243.605 387.155 240.195 386.712L240.389 385.225C240.054 385.182 239.719 385.138 239.384 385.094L239.188 386.581C235.91 386.149 232.573 385.68 229.181 385.173L229.402 383.69C229.071 383.64 228.738 383.59 228.406 383.54L228.182 385.023C224.898 384.527 221.565 383.996 218.187 383.431L218.435 381.951C218.106 381.896 217.776 381.841 217.446 381.785L217.196 383.264C213.917 382.71 210.597 382.123 207.241 381.503L207.513 380.028C207.181 379.967 206.848 379.905 206.516 379.843L206.241 381.318C202.967 380.709 199.659 380.069 196.322 379.398L196.617 377.928C196.288 377.862 195.959 377.795 195.629 377.729L195.332 379.199C192.057 378.536 188.755 377.844 185.429 377.122L185.747 375.656L185.251 375.549L184.756 375.441L184.435 376.906C181.111 376.18 177.819 375.437 174.565 374.679L174.906 373.218C174.578 373.141 174.251 373.065 173.924 372.988L173.582 374.449C170.268 373.671 166.993 372.879 163.762 372.072L164.125 370.616C163.797 370.534 163.469 370.452 163.142 370.37L162.776 371.825C159.466 370.993 156.202 370.147 152.99 369.288L153.377 367.839C153.054 367.753 152.731 367.666 152.409 367.579L152.019 369.028C148.712 368.138 145.459 367.236 142.267 366.322L142.679 364.88C142.356 364.788 142.033 364.695 141.711 364.602L141.296 366.043C138 365.094 134.769 364.134 131.609 363.164L132.049 361.73C131.725 361.631 131.402 361.531 131.08 361.432L130.638 362.865C127.352 361.85 124.145 360.826 121.021 359.794L121.491 358.37C121.168 358.263 120.846 358.156 120.524 358.05L120.051 359.473C116.773 358.383 113.589 357.286 110.507 356.184L111.012 354.771C110.691 354.657 110.371 354.542 110.052 354.427L109.543 355.838C106.27 354.659 103.114 353.475 100.084 352.291L100.63 350.894C100.313 350.77 99.9962 350.646 99.6813 350.522L99.131 351.917C95.8613 350.628 92.7422 349.338 89.7855 348.053L90.3833 346.677C90.0736 346.543 89.7657 346.408 89.4596 346.274L88.8563 347.647C85.5972 346.215 82.5415 344.79 79.7057 343.378L80.3742 342.036C80.075 341.887 79.7782 341.738 79.4841 341.589L78.8078 342.928C75.54 341.278 72.5764 339.647 69.9434 338.046L70.7224 336.765C70.4397 336.593 70.1611 336.421 69.8865 336.251L69.094 337.524C65.7981 335.473 63.0546 333.476 60.9196 331.556L61.9228 330.44C61.6835 330.225 61.4529 330.012 61.2311 329.8L60.1952 330.885C56.9158 327.753 55.304 324.839 55.6104 322.249L57.1 322.425C57.1141 322.306 57.1338 322.188 57.1593 322.071C57.1847 321.954 57.2157 321.839 57.2525 321.724L55.8244 321.265C56.6224 318.782 59.2997 316.801 63.5839 315.316L64.0752 316.734C64.365 316.633 64.6635 316.535 64.9706 316.439L64.5217 315.007C67.2617 314.148 70.5872 313.472 74.4373 312.976L74.6287 314.464C74.9495 314.423 75.2742 314.383 75.6027 314.344L75.427 312.855C78.4868 312.494 81.8602 312.242 85.5184 312.099L85.577 313.598C85.9063 313.585 86.238 313.573 86.5721 313.562L86.5222 312.063C89.6882 311.957 93.0598 311.931 96.6192 311.984L96.5971 313.483C96.9314 313.488 97.2673 313.494 97.605 313.5L97.633 312C100.856 312.061 104.229 312.184 107.739 312.371L107.66 313.868C107.998 313.886 108.337 313.905 108.678 313.924L108.762 312.426C112.01 312.609 115.372 312.844 118.839 313.132L118.715 314.627C119.053 314.655 119.392 314.684 119.732 314.713L119.859 313.218C123.121 313.497 126.473 313.822 129.907 314.193L129.746 315.685C130.082 315.721 130.42 315.758 130.758 315.795L130.922 314.304C134.192 314.665 137.536 315.066 140.946 315.509L140.753 316.996C141.087 317.039 141.422 317.083 141.757 317.127L141.953 315.64C145.231 316.072 148.569 316.541 151.96 317.048L151.739 318.531C152.071 318.581 152.403 318.631 152.735 318.681L152.96 317.198C156.243 317.694 159.576 318.225 162.954 318.79L162.706 320.27C163.036 320.325 163.365 320.38 163.695 320.436L163.945 318.957C167.224 319.511 170.544 320.098 173.901 320.718L173.628 322.193C173.96 322.254 174.293 322.316 174.626 322.378L174.9 320.903C178.174 321.512 181.482 322.152 184.819 322.823L184.524 324.293C184.853 324.359 185.182 324.426 185.512 324.492L185.809 323.022C189.084 323.685 192.387 324.377 195.712 325.099L195.394 326.565L195.89 326.672L196.386 326.78L196.706 325.315C200.031 326.041 203.322 326.784 206.576 327.542L206.235 329.003C206.563 329.08 206.89 329.156 207.217 329.233L207.559 327.772C210.873 328.55 214.148 329.342 217.379 330.149L217.016 331.605C217.344 331.687 217.672 331.769 217.999 331.851L218.365 330.396C221.675 331.228 224.939 332.074 228.152 332.933L227.764 334.382C228.087 334.468 228.41 334.555 228.733 334.642L229.122 333.193C232.429 334.083 235.682 334.985 238.875 335.899L238.462 337.341C238.785 337.433 239.108 337.526 239.431 337.619L239.846 336.178C243.141 337.127 246.372 338.087 249.532 339.057L249.092 340.491C249.416 340.59 249.739 340.69 250.061 340.789L250.504 339.356C253.789 340.371 256.997 341.395 260.121 342.427L259.65 343.851C259.973 343.958 260.296 344.065 260.617 344.171L261.09 342.748C264.368 343.838 267.552 344.935 270.634 346.037L270.129 347.45C270.451 347.564 270.771 347.679 271.09 347.794L271.598 346.383C274.871 347.562 278.027 348.746 281.057 349.93L280.511 351.327C280.829 351.451 281.145 351.575 281.46 351.699L282.01 350.304C285.28 351.593 288.399 352.883 291.356 354.168L290.758 355.544C291.068 355.678 291.375 355.813 291.682 355.947L292.285 354.574C295.544 356.006 298.6 357.431 301.435 358.843L300.767 360.185C301.066 360.334 301.363 360.483 301.657 360.632L302.333 359.293C305.601 360.943 308.565 362.574 311.198 364.175L310.419 365.456C310.701 365.628 310.98 365.8 311.255 365.97L312.047 364.697C315.343 366.748 318.087 368.745 320.222 370.665L319.218 371.781C319.458 371.996 319.688 372.209 319.91 372.421L320.946 371.336Z" stroke="black" stroke-width="3" stroke-dasharray="1 10"/>
<path d="M262.463 395.168C266.499 398.02 268.66 400.666 268.529 402.929L267.031 402.841C267.026 402.935 267.013 403.026 266.994 403.114C266.975 403.203 266.948 403.291 266.915 403.378L268.313 403.921C267.492 406.033 264.426 407.542 259.571 408.458L259.292 406.984C258.973 407.045 258.644 407.102 258.306 407.158L258.549 408.638C255.688 409.107 252.273 409.389 248.385 409.488L248.347 407.988C248.011 407.996 247.671 408.004 247.327 408.009L247.352 409.509C244.225 409.561 240.809 409.499 237.144 409.323L237.215 407.825C236.879 407.809 236.54 407.792 236.2 407.774L236.12 409.272C232.9 409.102 229.494 408.846 225.927 408.506L226.07 407.013C225.731 406.98 225.392 406.947 225.05 406.914L224.902 408.406C221.643 408.084 218.255 407.691 214.756 407.23L214.952 405.743C214.615 405.699 214.277 405.654 213.938 405.608L213.738 407.095C210.46 406.653 207.087 406.151 203.636 405.59L203.877 404.11C203.541 404.055 203.205 404 202.867 403.944L202.623 405.424C199.335 404.881 195.977 404.285 192.564 403.635L192.844 402.162C192.511 402.098 192.178 402.035 191.845 401.97L191.561 403.443C188.269 402.809 184.925 402.125 181.543 401.393L181.861 399.927L181.36 399.818L180.86 399.709L180.539 401.174C177.159 400.435 173.834 399.667 170.576 398.875L170.93 397.418C170.6 397.338 170.27 397.257 169.942 397.176L169.584 398.633C166.209 397.805 162.908 396.952 159.691 396.079L160.084 394.632C159.754 394.542 159.425 394.453 159.097 394.363L158.701 395.809C155.329 394.885 152.053 393.94 148.887 392.979L149.323 391.543C148.996 391.444 148.67 391.345 148.345 391.245L147.905 392.679C144.531 391.644 141.287 390.592 138.188 389.531L138.674 388.112C138.35 388.001 138.027 387.89 137.706 387.779L137.214 389.196C133.83 388.023 130.625 386.84 127.625 385.656L128.176 384.26C127.858 384.135 127.543 384.01 127.231 383.885L126.673 385.277C123.266 383.913 120.133 382.55 117.311 381.203L117.957 379.849C117.647 379.701 117.341 379.554 117.038 379.406L116.381 380.754C112.885 379.049 109.897 377.373 107.489 375.757L108.325 374.512C108.041 374.321 107.766 374.132 107.501 373.944L106.635 375.169C102.599 372.317 100.438 369.671 100.569 367.409L102.067 367.496C102.072 367.402 102.085 367.312 102.104 367.223C102.123 367.134 102.15 367.046 102.184 366.959L100.785 366.416C101.606 364.304 104.672 362.795 109.528 361.879L109.806 363.353C110.126 363.292 110.454 363.235 110.792 363.179L110.549 361.699C113.41 361.23 116.825 360.948 120.713 360.85L120.751 362.349C121.087 362.341 121.427 362.334 121.771 362.328L121.746 360.828C124.873 360.776 128.289 360.838 131.955 361.014L131.883 362.512C132.219 362.528 132.558 362.545 132.899 362.563L132.978 361.065C136.198 361.236 139.605 361.491 143.171 361.831L143.028 363.324C143.367 363.357 143.707 363.39 144.048 363.423L144.196 361.931C147.455 362.254 150.844 362.646 154.342 363.107L154.146 364.594C154.483 364.638 154.821 364.683 155.16 364.729L155.36 363.242C158.639 363.684 162.011 364.186 165.462 364.747L165.221 366.227C165.557 366.282 165.894 366.337 166.231 366.393L166.475 364.913C169.764 365.456 173.121 366.052 176.535 366.702L176.254 368.176C176.587 368.239 176.92 368.303 177.254 368.367L177.537 366.894C180.83 367.528 184.173 368.212 187.555 368.944L187.237 370.41L187.738 370.519L188.238 370.628L188.559 369.163C191.939 369.902 195.264 370.67 198.522 371.462L198.168 372.919C198.498 373 198.828 373.08 199.157 373.161L199.514 371.704C202.889 372.532 206.19 373.385 209.407 374.258L209.014 375.705C209.344 375.795 209.673 375.885 210.001 375.975L210.398 374.528C213.77 375.452 217.045 376.398 220.211 377.358L219.775 378.794C220.102 378.893 220.428 378.993 220.753 379.092L221.193 377.658C224.567 378.693 227.812 379.745 230.91 380.806L230.424 382.225C230.749 382.336 231.072 382.447 231.393 382.559L231.884 381.141C235.269 382.314 238.473 383.498 241.473 384.681L240.923 386.077C241.24 386.202 241.555 386.327 241.867 386.452L242.425 385.06C245.832 386.424 248.965 387.787 251.787 389.134L251.141 390.488C251.451 390.636 251.758 390.783 252.06 390.931L252.718 389.583C256.213 391.288 259.202 392.965 261.609 394.58L260.773 395.826C261.057 396.016 261.332 396.205 261.598 396.393L262.463 395.168Z" stroke="black" stroke-width="3" stroke-dasharray="1 10"/>
<path d="M236.053 403.437C240.817 406.06 243.562 408.522 243.627 410.541L242.128 410.59C242.13 410.652 242.125 410.706 242.114 410.756C242.103 410.805 242.086 410.857 242.058 410.913L243.401 411.58C242.502 413.389 238.982 414.487 233.56 414.893L233.448 413.397C233.108 413.422 232.76 413.445 232.403 413.465L232.487 414.963C229.417 415.134 225.803 415.102 221.758 414.87L221.844 413.373C221.498 413.353 221.148 413.332 220.794 413.309L220.697 414.806C217.389 414.592 213.809 414.248 210.017 413.778L210.202 412.289C209.853 412.246 209.502 412.201 209.149 412.156L208.957 413.643C205.57 413.206 202.021 412.67 198.352 412.034L198.608 410.556C198.257 410.496 197.905 410.434 197.552 410.372L197.291 411.849C193.873 411.243 190.355 410.553 186.77 409.779L187.086 408.313C186.912 408.275 186.737 408.237 186.562 408.199C186.495 408.185 186.428 408.17 186.362 408.156C186.254 408.132 186.146 408.108 186.038 408.085L185.717 409.55C182.134 408.763 178.648 407.929 175.287 407.059L175.663 405.607C175.316 405.517 174.971 405.427 174.626 405.336L174.245 406.787C170.643 405.84 167.193 404.853 163.93 403.843L164.374 402.41C164.034 402.305 163.697 402.199 163.361 402.093L162.911 403.524C159.266 402.376 155.867 401.2 152.769 400.02L153.303 398.618C152.972 398.492 152.645 398.366 152.322 398.24L151.777 399.638C148.002 398.167 144.702 396.694 141.981 395.262L142.68 393.935C142.364 393.769 142.056 393.603 141.758 393.439L141.034 394.753C136.271 392.13 133.526 389.668 133.46 387.649L134.959 387.6C134.957 387.539 134.963 387.484 134.974 387.434C134.984 387.385 135.002 387.333 135.03 387.278L133.686 386.61C134.585 384.801 138.105 383.703 143.528 383.297L143.64 384.793C143.98 384.768 144.328 384.745 144.685 384.725L144.601 383.228C147.67 383.056 151.284 383.088 155.329 383.32L155.243 384.817C155.59 384.837 155.94 384.858 156.293 384.881L156.39 383.384C159.699 383.599 163.279 383.942 167.071 384.412L166.886 385.901C167.235 385.944 167.586 385.989 167.939 386.034L168.131 384.547C171.518 384.984 175.066 385.52 178.736 386.156L178.48 387.634C178.83 387.694 179.182 387.756 179.535 387.819L179.797 386.342C183.215 386.947 186.732 387.637 190.318 388.411L190.001 389.877C190.176 389.915 190.351 389.953 190.525 389.991C190.7 390.029 190.875 390.067 191.049 390.105L191.371 388.64C194.954 389.427 198.44 390.261 201.8 391.131L201.424 392.583C201.771 392.673 202.117 392.763 202.461 392.854L202.843 391.403C206.444 392.35 209.895 393.337 213.157 394.348L212.713 395.78C213.053 395.886 213.391 395.991 213.726 396.097L214.177 394.666C217.822 395.814 221.22 396.99 224.318 398.17L223.784 399.572C224.115 399.698 224.442 399.824 224.766 399.95L225.31 398.552C229.086 400.023 232.386 401.496 235.106 402.928L234.408 404.255C234.724 404.421 235.031 404.587 235.33 404.751L236.053 403.437Z" stroke="black" stroke-width="3" stroke-dasharray="1 10"/>
<defs>
<linearGradient id="paint0_linear_291_101" x1="220" y1="0" x2="220" y2="440" gradientUnits="userSpaceOnUse">
<stop/>
<stop offset="1" stop-color="#666666" stop-opacity="0"/>
</linearGradient>
</defs>
</svg>
